<svg width="40" height="40" viewBox="0 0 40 40" fill="none" xmlns="http://www.w3.org/2000/svg">
<path d="M20.0071 11.7956C15.4658 11.7956 11.8027 15.4587 11.8027 20C11.8027 24.5413 15.4658 28.2044 20.0071 28.2044C24.5485 28.2044 28.2115 24.5413 28.2115 20C28.2115 15.4587 24.5485 11.7956 20.0071 11.7956ZM20.0071 25.3339C17.0724 25.3339 14.6732 22.9419 14.6732 20C14.6732 17.0581 17.0653 14.6661 20.0071 14.6661C22.949 14.6661 25.3411 17.0581 25.3411 20C25.3411 22.9419 22.9419 25.3339 20.0071 25.3339ZM30.4608 11.46C30.4608 12.5239 29.6039 13.3736 28.5471 13.3736C27.4832 13.3736 26.6335 12.5168 26.6335 11.46C26.6335 10.4032 27.4904 9.54636 28.5471 9.54636C29.6039 9.54636 30.4608 10.4032 30.4608 11.46ZM35.8947 13.4022C35.7733 10.8388 35.1878 8.56811 33.3098 6.69731C31.439 4.82651 29.1684 4.24099 26.6049 4.11246C23.963 3.96251 16.0442 3.96251 13.4022 4.11246C10.8459 4.23385 8.57525 4.81937 6.69731 6.69017C4.81937 8.56097 4.24099 10.8316 4.11246 13.3951C3.96251 16.037 3.96251 23.9558 4.11246 26.5978C4.23385 29.1612 4.81937 31.4319 6.69731 33.3027C8.57525 35.1735 10.8388 35.759 13.4022 35.8875C16.0442 36.0375 23.963 36.0375 26.6049 35.8875C29.1684 35.7661 31.439 35.1806 33.3098 33.3027C35.1806 31.4319 35.7662 29.1612 35.8947 26.5978C36.0446 23.9558 36.0446 16.0442 35.8947 13.4022ZM32.4815 29.4326C31.9246 30.8321 30.8464 31.9103 29.4397 32.4744C27.3333 33.3098 22.3349 33.117 20.0071 33.117C17.6793 33.117 12.6739 33.3027 10.5746 32.4744C9.17505 31.9174 8.09684 30.8392 7.53275 29.4326C6.69731 27.3261 6.8901 22.3278 6.8901 20C6.8901 17.6722 6.70445 12.6667 7.53275 10.5674C8.0897 9.16791 9.16791 8.0897 10.5746 7.52561C12.681 6.69017 17.6793 6.88296 20.0071 6.88296C22.3349 6.88296 27.3404 6.69731 29.4397 7.52561C30.8392 8.08256 31.9174 9.16077 32.4815 10.5674C33.317 12.6739 33.1242 17.6722 33.1242 20C33.1242 22.3278 33.317 27.3333 32.4815 29.4326Z" fill="white"/>
</svg>
