<svg width="54" height="90" viewBox="0 0 54 90" fill="none" xmlns="http://www.w3.org/2000/svg">
<path d="M53.3793 26.7C53.3816 22.3371 52.314 18.0402 50.2701 14.1856C48.2261 10.3309 45.2681 7.03619 41.6551 4.58983C38.0421 2.14348 33.8843 0.620148 29.5458 0.153253C25.2074 -0.313641 20.8206 0.29014 16.7697 1.91172C12.7188 3.5333 9.1273 6.12322 6.30976 9.45465C3.49223 12.7861 1.53459 16.7574 0.608299 21.0209C-0.317995 25.2843 -0.184692 29.7098 0.996536 33.9098C2.17776 38.1097 4.37088 41.9561 7.38382 45.1119C11.1683 49.1464 13.2569 54.4811 13.2175 60.0122V60.9257H39.6301V60.2518C39.6815 54.6416 41.9131 49.2714 45.8531 45.2767C50.6915 40.3045 53.3926 33.6372 53.3793 26.7V26.7Z" fill="url(#paint0_linear_66_393)"/>
<path d="M19.523 60.9931C19.3074 60.9937 19.0984 60.9193 18.9317 60.7827C18.765 60.6461 18.651 60.4557 18.6093 60.2443L13.0303 26.4828C13.0101 26.3623 13.0139 26.2391 13.0414 26.1201C13.0688 26.0011 13.1195 25.8887 13.1904 25.7893C13.2613 25.6898 13.3512 25.6053 13.4547 25.5406C13.5583 25.4759 13.6737 25.4322 13.7941 25.4121C13.9146 25.3919 14.0379 25.3957 14.1569 25.4231C14.2759 25.4506 14.3883 25.5013 14.4878 25.5722C14.5872 25.6431 14.6717 25.7329 14.7364 25.8365C14.8011 25.94 14.8448 26.0553 14.865 26.1758L20.4441 59.9373C20.4835 60.1782 20.4273 60.4249 20.2874 60.625C20.1475 60.825 19.935 60.9624 19.6952 61.008L19.523 60.9931Z" fill="white"/>
<path d="M33.4818 60.9931H33.3245C33.0847 60.9475 32.8722 60.81 32.7323 60.61C32.5924 60.41 32.5362 60.1633 32.5757 59.9224L38.1547 26.1609C38.1954 25.9176 38.3311 25.7005 38.532 25.5572C38.7328 25.414 38.9823 25.3564 39.2256 25.3971C39.4689 25.4378 39.6861 25.5735 39.8293 25.7743C39.9726 25.9751 40.0302 26.2246 39.9895 26.4678L34.4104 60.2294C34.3713 60.4461 34.2565 60.6419 34.0864 60.7818C33.9163 60.9217 33.702 60.9966 33.4818 60.9931Z" fill="white"/>
<path d="M29.4305 33.304C28.2548 33.304 27.1165 32.6002 26.0381 31.2C25.6038 30.6309 25.177 30.3689 24.7801 30.3988C23.8814 30.4812 22.863 31.9338 22.5334 32.6451C22.4212 32.8645 22.2264 33.0304 21.9919 33.1062C21.7574 33.1821 21.5023 33.1616 21.2828 33.0494C21.0634 32.9372 20.8975 32.7424 20.8216 32.5079C20.7458 32.2734 20.7662 32.0184 20.8784 31.799C21.0357 31.492 22.481 28.759 24.6228 28.5644C25.1965 28.5335 25.768 28.656 26.2787 28.9192C26.7893 29.1824 27.2207 29.5768 27.5284 30.0619C28.0451 30.7283 28.8164 31.5145 29.5578 31.4321C30.419 31.3423 31.1754 30.1592 31.3701 29.7549C31.4811 29.5421 31.6702 29.3805 31.8978 29.3041C32.1253 29.2276 32.3737 29.2423 32.5907 29.3449C32.8076 29.4476 32.9764 29.6303 33.0616 29.8547C33.1468 30.0791 33.1418 30.3278 33.0475 30.5486C32.9277 30.8031 31.8044 33.0644 29.76 33.2815L29.4305 33.304Z" fill="white"/>
<path opacity="0.21" d="M43.639 15.3442C45.0621 12.0624 42.8105 7.92572 38.6099 6.10474C34.4093 4.28377 29.8504 5.46802 28.4273 8.74985C27.0042 12.0317 29.2558 16.1683 33.4564 17.9893C37.657 19.8103 42.2159 18.626 43.639 15.3442Z" fill="white"/>
<path fill-rule="evenodd" clip-rule="evenodd" d="M11.57 56.83H41.8018V80.6929H11.57V56.83ZM36.1357 84.2546C36.6035 83.1254 36.8443 81.9152 36.8443 80.6929H16.5425C16.5425 83.1613 17.5232 85.5286 19.2689 87.274C21.0145 89.0194 23.3822 90 25.8509 90H27.5359C28.7583 90 29.9687 89.7593 31.0981 89.2915C32.2274 88.8238 33.2536 88.1383 34.1179 87.274C34.9823 86.4098 35.6679 85.3838 36.1357 84.2546Z" fill="url(#paint1_linear_66_393)"/>
<defs>
<linearGradient id="paint0_linear_66_393" x1="8.5" y1="7" x2="39.5" y2="57" gradientUnits="userSpaceOnUse">
<stop stop-color="#FFD200"/>
<stop offset="1" stop-color="#FF9900"/>
</linearGradient>
<linearGradient id="paint1_linear_66_393" x1="26.6859" y1="56.83" x2="26.6859" y2="90" gradientUnits="userSpaceOnUse">
<stop stop-color="#24285B"/>
<stop offset="1" stop-color="#24285B" stop-opacity="0"/>
</linearGradient>
</defs>
</svg>
