<svg width="196" height="148" viewBox="0 0 196 148" fill="none" xmlns="http://www.w3.org/2000/svg">
<path opacity="0.45" d="M100.729 134.661C141.79 134.661 175.077 130.116 175.077 124.508C175.077 118.901 141.79 114.356 100.729 114.356C59.6682 114.356 26.3816 118.901 26.3816 124.508C26.3816 130.116 59.6682 134.661 100.729 134.661Z" fill="#E6E6E6"/>
<path opacity="0.58" d="M140.331 115.404C140.331 115.404 134.417 113.817 133.109 108.319C133.109 108.319 142.257 106.432 142.556 115.88L140.331 115.404Z" fill="url(#paint0_linear_47_826)"/>
<path opacity="0.73" d="M141.056 114.816C141.056 114.816 136.901 108.304 140.507 102.189C140.507 102.189 147.485 106.599 144.427 114.816H141.056Z" fill="url(#paint1_linear_47_826)"/>
<path d="M142.1 114.816C142.1 114.816 144.251 107.912 150.842 106.579C150.842 106.579 152.096 111.048 146.603 114.816H142.1Z" fill="url(#paint2_linear_47_826)"/>
<path d="M137.832 114.679L139.067 122.867H146.608L147.686 114.679H137.832Z" fill="#24285B"/>
<path d="M125.964 22.5688H70.0406V122.867H125.964V22.5688Z" fill="#C9C9C9"/>
<path d="M120.956 34.0055H74.6662V104.59H120.956V34.0055Z" fill="white"/>
<path opacity="0.08" d="M125.959 42.4579H103.64V62.0432H125.959V42.4579Z" fill="black"/>
<path opacity="0.08" d="M125.959 71.1671H100.21V90.7524H125.959V71.1671Z" fill="black"/>
<path opacity="0.56" d="M98.1715 119.104C101.194 119.104 103.645 116.653 103.645 113.63C103.645 110.608 101.194 108.157 98.1715 108.157C95.1487 108.157 92.6982 110.608 92.6982 113.63C92.6982 116.653 95.1487 119.104 98.1715 119.104Z" fill="white"/>
<path opacity="0.08" d="M91.0175 60.9702L100.21 62.3422L99.9257 62.9547C99.0088 65.0207 98.4822 67.2385 98.3724 69.4962C98.3038 70.5938 97.6815 72.0932 95.6137 73.8572C92.0857 76.8658 89.817 86.5531 85.1326 90.3359C83.7461 91.4918 82.621 92.9292 81.832 94.5528C81.043 96.1765 80.6081 97.9492 80.556 99.7537L79.6446 122.862H70.56L72.5641 87.5282L74.97 75.3321L80.85 69.2952L86.24 62.3422L88.69 60.9702H91.0175Z" fill="black"/>
<path opacity="0.12" d="M108.951 26.4889H93.2715V28.7772H108.951V26.4889Z" fill="black"/>
<path d="M87.5924 30.4334C89.0023 30.4334 90.1453 29.2904 90.1453 27.8805C90.1453 26.4705 89.0023 25.3276 87.5924 25.3276C86.1825 25.3276 85.0395 26.4705 85.0395 27.8805C85.0395 29.2904 86.1825 30.4334 87.5924 30.4334Z" fill="white"/>
<path d="M74.9504 74.1169L83.7508 63.1458L85.652 64.8117L78.1501 77.3558L74.9504 74.1169Z" fill="url(#paint3_linear_47_826)"/>
<path d="M60.3729 56.0457L61.9948 60.9212L58.1385 63.3712L56.7518 54.9236L60.3729 56.0457Z" fill="#F4A28C"/>
<path d="M55.4288 50.2147C55.629 49.7502 55.9423 49.3432 56.34 49.0306C56.7377 48.7181 57.2073 48.51 57.706 48.4252C58.2046 48.3405 58.7166 48.3818 59.1952 48.5455C59.6738 48.7091 60.104 48.9898 60.4464 49.3621C62.0879 51.1114 64.0675 53.8995 61.8282 55.4185C58.3982 57.7411 55.2573 53.3997 55.2573 53.3997C54.9993 52.3443 55.059 51.2363 55.4288 50.2147Z" fill="#F4A28C"/>
<path d="M57.9327 53.2037C57.9327 53.2037 57.0556 52.4687 56.6538 53.5124C56.252 54.5561 57.8102 55.0559 58.2708 54.5316C58.7314 54.0073 57.9327 53.2037 57.9327 53.2037Z" fill="#F4A28C"/>
<path d="M53.6354 65.7624C54.2185 64.4725 55.0727 63.3234 56.1397 62.3933C57.2068 61.4632 58.4618 60.7739 59.8192 60.3724C65.0573 58.7995 74.7103 60.5194 77.6503 65.4243C81.6781 72.1324 75.7834 93.4523 75.7834 93.4523L58.1728 94.8194C58.1728 94.8194 48.51 77.3362 53.6354 65.7624Z" fill="url(#paint4_linear_47_826)"/>
<path d="M75.7834 93.4424L73.4657 123.715H69.8054L66.5322 100.195L58.4374 94.8095L75.7834 93.4424Z" fill="#24285B"/>
<path d="M58.4374 94.8096L53.3855 123.715H57.3104L65.7923 99.6998L58.4374 94.8096Z" fill="#24285B"/>
<path opacity="0.08" d="M61.3431 59.902C61.3431 59.902 53.1062 86.4306 76.8908 88.1897L75.7834 93.4621L58.1728 94.8292C58.1728 94.8292 51.9694 85.0831 52.2291 71.3974C52.2291 71.3974 52.381 64.6305 57.1291 61.6415C58.3937 60.7679 59.8305 60.1748 61.3431 59.902Z" fill="black"/>
<path d="M54.3067 123.651L51.94 125.395C51.8536 125.461 51.7898 125.553 51.7576 125.657C51.7254 125.761 51.7263 125.872 51.7602 125.975C51.7941 126.079 51.8594 126.169 51.9469 126.234C52.0345 126.298 52.1399 126.334 52.2487 126.336H56.2128C56.351 126.335 56.4831 126.279 56.5804 126.181C56.6777 126.083 56.7322 125.95 56.7322 125.812V123.651H54.3067Z" fill="#05C2C5"/>
<path d="M73.01 123.651L75.2395 125.395C75.3269 125.462 75.3911 125.555 75.423 125.66C75.4548 125.766 75.4527 125.878 75.4169 125.982C75.3811 126.086 75.3135 126.177 75.2236 126.24C75.1337 126.304 75.0262 126.337 74.9161 126.336H72.0937C71.8931 126.339 71.6938 126.303 71.5075 126.228C71.3212 126.153 71.1517 126.042 71.0089 125.901C70.8661 125.76 70.7528 125.592 70.6758 125.407C70.5987 125.222 70.5593 125.023 70.56 124.822V123.646L73.01 123.651Z" fill="#05C2C5"/>
<path d="M68.5216 60.2253C67.6442 61.6339 67.1792 63.2601 67.1792 64.9195C67.1792 66.579 67.6442 68.2052 68.5216 69.6137C70.4424 72.8575 76.0333 79.1687 79.8504 83.3337C80.2816 83.806 80.819 84.1689 81.4181 84.3925C82.0172 84.6161 82.6609 84.694 83.2961 84.6198C83.9313 84.5457 84.5397 84.3215 85.0712 83.9658C85.6026 83.6101 86.0419 83.1331 86.3527 82.5742L94.57 68.1143L91.7868 66.3307L84.2653 77.3557C84.2653 77.3557 79.1056 60.436 68.5216 60.2253Z" fill="#05C2C5"/>
<path opacity="0.2" d="M68.5216 60.2253C67.6442 61.6339 67.1792 63.2601 67.1792 64.9195C67.1792 66.579 67.6442 68.2052 68.5216 69.6137C70.4424 72.8575 76.0333 79.1687 79.8504 83.3337C80.2816 83.806 80.819 84.1689 81.4181 84.3925C82.0172 84.6161 82.6609 84.694 83.2961 84.6198C83.9313 84.5457 84.5397 84.3215 85.0712 83.9658C85.6026 83.6101 86.0419 83.1331 86.3527 82.5742L94.57 68.1143L91.7868 66.3307L84.2653 77.3557C84.2653 77.3557 79.1056 60.436 68.5216 60.2253Z" fill="url(#paint5_linear_47_826)"/>
<path d="M93.59 67.4921C93.59 67.4921 98.2499 65.782 96.3487 63.1458C94.4475 60.5096 91.777 66.3308 91.777 66.3308L93.59 67.4921Z" fill="#F4A28C"/>
<path d="M97.8219 59.8365L93.6229 57.9556L90.8805 64.0775L95.0796 65.9585L97.8219 59.8365Z" fill="#FFD200"/>
<path d="M57.0066 56.4719L54.39 53.772C54.1202 53.491 53.9107 53.1579 53.7742 52.7931C53.6377 52.4283 53.5771 52.0394 53.5962 51.6503C53.6599 50.2783 53.9539 48.088 55.0662 46.4416C56.8498 43.8642 59.2263 42.8891 59.8143 45.1186C60.4023 47.3481 60.5297 44.7021 61.9654 45.883C63.4011 47.0639 63.1071 47.7646 61.9654 48.3918C60.8237 49.019 58.457 49.9304 58.2463 51.8218C58.0356 53.7132 59.8486 55.2077 57.0066 56.4719Z" fill="#24285B"/>
<path d="M84.1967 63.5378C84.1967 63.5378 84.7798 59.5149 88.6802 59.902C92.5806 60.2891 91.1547 61.2838 89.5818 61.372C89.2618 61.4392 88.9657 61.5911 88.7244 61.8117C88.4831 62.0323 88.3054 62.3137 88.2098 62.6264C87.9795 63.332 87.3474 64.2434 85.6667 64.8216L84.1967 63.5378Z" fill="#F4A28C"/>
<path d="M150.45 39.5621H103.64V59.1474H150.45V39.5621Z" fill="#FFD200"/>
<path d="M147.02 68.472H100.21V88.0573H147.02V68.472Z" fill="#FFD200"/>
<path d="M124.484 43.8104H108.951V53.7623H124.484V43.8104Z" fill="white"/>
<path d="M108.951 43.8104L116.713 51.0771L124.48 43.8104H108.951Z" fill="#24285B"/>
<path d="M144.491 44.8688H130.198V47.8088H144.491V44.8688Z" fill="white"/>
<path opacity="0.46" d="M144.491 49.6071H130.198V52.5471H144.491V49.6071Z" fill="white"/>
<path d="M140.258 73.8572H124.769V76.7972H140.258V73.8572Z" fill="white"/>
<path opacity="0.46" d="M140.258 78.5955H124.769V81.5355H140.258V78.5955Z" fill="white"/>
<path d="M113.156 85.3575C117.158 85.3575 120.403 82.1128 120.403 78.1104C120.403 74.1079 117.158 70.8633 113.156 70.8633C109.153 70.8633 105.909 74.1079 105.909 78.1104C105.909 82.1128 109.153 85.3575 113.156 85.3575Z" fill="#24285B"/>
<path d="M113.332 79.0708C114.869 79.0708 116.115 77.8247 116.115 76.2876C116.115 74.7505 114.869 73.5044 113.332 73.5044C111.795 73.5044 110.549 74.7505 110.549 76.2876C110.549 77.8247 111.795 79.0708 113.332 79.0708Z" fill="white"/>
<path opacity="0.24" d="M108.29 83.4906C108.29 83.4906 108.893 79.2374 113.146 79.0169C117.654 78.7866 118.002 83.4906 118.002 83.4906C116.67 84.6926 114.94 85.358 113.146 85.358C111.352 85.358 109.622 84.6926 108.29 83.4906Z" fill="white"/>
<path d="M48.3875 58.922L44.3646 57.2756V53.4536H28.5621V63.2977H44.3646V59.9853L48.3875 58.922Z" fill="#E6E6E6"/>
<path opacity="0.12" d="M32.928 59.5786C33.591 59.5786 34.1285 59.0411 34.1285 58.3781C34.1285 57.715 33.591 57.1776 32.928 57.1776C32.265 57.1776 31.7275 57.715 31.7275 58.3781C31.7275 59.0411 32.265 59.5786 32.928 59.5786Z" fill="black"/>
<path opacity="0.12" d="M36.4364 59.5786C37.0994 59.5786 37.6369 59.0411 37.6369 58.3781C37.6369 57.715 37.0994 57.1776 36.4364 57.1776C35.7734 57.1776 35.2359 57.715 35.2359 58.3781C35.2359 59.0411 35.7734 59.5786 36.4364 59.5786Z" fill="black"/>
<path opacity="0.12" d="M39.8615 59.5786C40.5245 59.5786 41.062 59.0411 41.062 58.3781C41.062 57.715 40.5245 57.1776 39.8615 57.1776C39.1985 57.1776 38.661 57.715 38.661 58.3781C38.661 59.0411 39.1985 59.5786 39.8615 59.5786Z" fill="black"/>
<defs>
<linearGradient id="paint0_linear_47_826" x1="133.109" y1="108.165" x2="140.667" y2="117.422" gradientUnits="userSpaceOnUse">
<stop stop-color="#05C2C5"/>
<stop offset="1" stop-color="#8254FB"/>
</linearGradient>
<linearGradient id="paint1_linear_47_826" x1="139.036" y1="102.189" x2="148.994" y2="107.052" gradientUnits="userSpaceOnUse">
<stop stop-color="#05C2C5"/>
<stop offset="1" stop-color="#8254FB"/>
</linearGradient>
<linearGradient id="paint2_linear_47_826" x1="142.1" y1="106.579" x2="150.315" y2="115.42" gradientUnits="userSpaceOnUse">
<stop stop-color="#05C2C5"/>
<stop offset="1" stop-color="#8254FB"/>
</linearGradient>
<linearGradient id="paint3_linear_47_826" x1="74.9504" y1="63.1458" x2="88.6077" y2="73.4311" gradientUnits="userSpaceOnUse">
<stop stop-color="#05C2C5"/>
<stop offset="1" stop-color="#8254FB"/>
</linearGradient>
<linearGradient id="paint4_linear_47_826" x1="52.1364" y1="59.8074" x2="85.9736" y2="85.8258" gradientUnits="userSpaceOnUse">
<stop stop-color="#05C2C5"/>
<stop offset="1" stop-color="#8254FB"/>
</linearGradient>
<linearGradient id="paint5_linear_47_826" x1="67.1792" y1="60.2253" x2="91.4411" y2="87.4368" gradientUnits="userSpaceOnUse">
<stop stop-color="#05C2C5"/>
<stop offset="1" stop-color="#8254FB"/>
</linearGradient>
</defs>
</svg>
