<svg width="196" height="148" viewBox="0 0 196 148" fill="none" xmlns="http://www.w3.org/2000/svg">
<path d="M94.8836 68.7815C94.8836 68.7815 107.663 85.8923 117.595 91.4391C127.527 96.9859 146.51 67.3556 146.51 67.3556L142.864 64.6557L122.059 80.4827C122.059 80.4827 110.098 53.6062 100.989 53.8953C91.8799 54.1844 90.9587 63.8472 94.8836 68.7815Z" fill="#F4A28C"/>
<path opacity="0.45" d="M91.6888 130.13C120.84 130.13 144.472 126.731 144.472 122.539C144.472 118.348 120.84 114.949 91.6888 114.949C62.5377 114.949 38.906 118.348 38.906 122.539C38.906 126.731 62.5377 130.13 91.6888 130.13Z" fill="#E6E6E6"/>
<path d="M116.507 41.4787L116.929 43.2231C116.953 43.3223 116.952 43.4262 116.926 43.5249C116.899 43.6236 116.848 43.714 116.777 43.7875C116.706 43.861 116.618 43.9153 116.52 43.9451C116.422 43.9749 116.318 43.9794 116.218 43.9581L114.778 43.6641L116.507 41.4787Z" fill="#F4A28C"/>
<path d="M117.6 39.2835C117.6 39.2835 116.13 42.7576 114.366 44.6735C114.197 44.8577 113.994 45.0068 113.768 45.1122C113.541 45.2176 113.296 45.2772 113.047 45.2877C112.797 45.2981 112.548 45.2592 112.314 45.1732C112.079 45.0871 111.864 44.9556 111.681 44.7862C110.73 43.8944 109.721 42.4146 110.279 40.4546L110.843 37.0246C111.029 36.3472 111.421 35.7442 111.964 35.2984C112.507 34.8527 113.175 34.5861 113.876 34.5354C116.488 34.1679 118.624 37.2108 117.6 39.2835Z" fill="#F4A28C"/>
<path d="M110.941 38.034L100.979 45.6486L105.634 50.6858L110.838 43.3407L110.941 38.034Z" fill="#F4A28C"/>
<path d="M110.01 37.6077L108.917 39.5677C109.305 40.0197 109.837 40.323 110.423 40.4258C111.01 40.5286 111.614 40.4245 112.132 40.1312C112.672 39.8377 113.114 39.393 113.405 38.8516C113.696 38.3101 113.822 37.6956 113.768 37.0834C113.768 37.0834 113.562 38.5142 114.993 38.3574C116.424 38.2006 117.095 38.6024 116.743 39.4305C116.39 40.2586 117.791 40.9691 119.227 39.7C120.663 38.4309 118.095 37.8429 119.281 37.25C120.467 36.6571 121.78 36.5591 120.824 34.9764C119.869 33.3937 119.075 35.2998 118.663 33.82C118.252 32.3402 118.698 31.174 116.855 30.88C115.013 30.586 115.248 32.6489 113.822 31.5121C112.396 30.3753 111.745 30.4733 110.657 32.0707C109.946 33.1095 109.422 33.8739 109.794 34.4668C110.113 34.9211 110.301 35.4538 110.339 36.0073C110.377 36.5608 110.263 37.1141 110.01 37.6077Z" fill="#24285B"/>
<path d="M112.543 40.2341C112.543 40.2341 113.19 38.9405 112.21 38.524C111.23 38.1075 110.221 39.994 111.441 40.8466L112.543 40.2341Z" fill="#F4A28C"/>
<path d="M93.59 96.54C93.59 96.54 105.541 101.592 110.397 116.811L108.78 118.59C108.78 118.59 102.699 108.589 88.7782 100.857L93.59 96.54Z" fill="#F4A28C"/>
<path d="M92.8158 102.082C92.8158 102.082 79.7622 117.884 66.6694 108.677L67.3554 106.551C67.3554 106.551 81.1489 111.162 86.6418 94.482L92.8158 102.082Z" fill="#F4A28C"/>
<path opacity="0.31" d="M110.691 43.5514C110.253 42.8338 110.02 42.0105 110.015 41.17C110.015 41.17 107.717 42.6106 109.201 45.6486L110.691 43.5514Z" fill="#CE8172"/>
<path d="M100.979 45.6486L107.192 48.4857C109.703 49.7265 111.788 51.6851 113.184 54.1129C114.58 56.5407 115.223 59.3284 115.032 62.1224C114.812 65.5083 114.052 67.14 112.994 71.9714C111.71 77.7828 111.823 83.8686 106.903 87.2153C103.219 89.7192 98.343 93.7862 97.2454 98.3285L78.6254 89.4252C78.6254 89.4252 70.4179 44.2325 100.979 45.6486Z" fill="#FFD200"/>
<path d="M78.645 89.4252C78.645 89.4252 76.0725 96.7752 82.4425 99.7152C88.8125 102.655 97.9069 107.065 97.9069 107.065L103.086 101.185C95.7624 95.7446 87.4666 91.7531 78.645 89.4252Z" fill="#24285B"/>
<path d="M119.687 60.8631H46.1628V94.7123H119.687V60.8631Z" fill="url(#paint0_linear_45_752)"/>
<path d="M105.958 77.7877L85.113 67.3556V73.0102H63.2394V82.33H85.113V88.2247L105.958 77.7877Z" fill="white"/>
<path opacity="0.16" d="M99.0633 60.8631C99.0633 60.8631 71.3587 66.8656 81.585 94.58L68.3109 94.6927L65.1406 74L66.7625 58.565L99.0633 60.8631Z" fill="black"/>
<path d="M91.2526 46.0063C91.2526 46.0063 70.07 48.5445 60.27 54.4C50.47 60.2555 66.7086 91.493 66.7086 91.493L72.03 89.1557L67.5269 63.7345C67.5269 63.7345 96.7896 66.7774 101.087 58.7365C105.384 50.6956 97.5099 45.09 91.2526 46.0063Z" fill="#F4A28C"/>
<path d="M64.4546 86.7449L71.246 84.6428L72.3779 91.1598L66.7478 92.1398L64.4546 86.7449Z" fill="#FFD200"/>
<path d="M83.3 95.3591C83.3 95.3591 80.1101 103.258 77.3367 104.027L81.5507 111.093C81.5507 111.093 88.6214 108.32 92.6835 103.978C92.6933 103.978 87.4748 94.8691 83.3 95.3591Z" fill="#24285B"/>
<path d="M110.412 116.816C110.412 116.816 112.181 117.826 113.597 116.816C115.013 115.807 116.453 116.816 115.557 118.144C114.66 119.472 110.299 120.594 110.299 120.594L108.78 118.59L110.412 116.816Z" fill="#05C2C5"/>
<path d="M67.3015 108.917C67.3015 108.917 65.3415 109.407 65.023 111.137C64.7045 112.867 62.9846 113.146 62.6906 111.554C62.3966 109.961 64.7584 106.164 64.7584 106.164L67.2378 106.507L67.3015 108.917Z" fill="#05C2C5"/>
<path d="M142.884 64.6557C142.884 64.6557 142.58 59.0746 143.707 58.7365C144.834 58.3984 145.363 61.113 145.363 61.113C145.363 61.113 146.686 56.3453 149.156 56.9382C151.626 57.5311 146.51 67.3556 146.51 67.3556L142.884 64.6557Z" fill="#F4A28C"/>
<path d="M67.3113 92.0418C67.3113 92.0418 66.8899 98.2158 69.678 98.0394C72.4661 97.863 74.088 94.7123 74.088 94.7123L72.3779 91.15L67.3113 92.0418Z" fill="#F4A28C"/>
<path d="M142.884 64.6557L139.336 67.3556L143.413 71.893L146.53 67.3556L142.884 64.6557Z" fill="#FFD200"/>
<path opacity="0.08" d="M124.95 78.2973V90.7972C124.95 90.7972 122.392 92.4191 119.687 92.13V75.5484L122.079 80.4827L124.95 78.2973Z" fill="black"/>
<path d="M110.294 35.78C112.989 36.3035 115.505 37.5098 117.6 39.2835L116.723 41.1014C116.723 41.1014 114.66 38.72 110.01 37.6077L110.294 35.78Z" fill="#05C2C5"/>
<path d="M71.4126 33.5946L55.0907 25.4214V29.7138H32.1538V38.083H55.0907V41.7629L71.4126 33.5946Z" fill="#E6E6E6"/>
<path d="M165.199 103.018L152.145 96.4861V99.921H133.804V106.61H152.145V109.554L165.199 103.018Z" fill="#C9C9C9"/>
<path d="M91.6888 39.014C93.5507 39.014 95.06 37.5047 95.06 35.6428C95.06 33.7809 93.5507 32.2716 91.6888 32.2716C89.827 32.2716 88.3176 33.7809 88.3176 35.6428C88.3176 37.5047 89.827 39.014 91.6888 39.014Z" fill="#C9C9C9"/>
<path d="M114.778 21.8101C115.638 21.8101 116.336 21.1125 116.336 20.2519C116.336 19.3914 115.638 18.6937 114.778 18.6937C113.917 18.6937 113.219 19.3914 113.219 20.2519C113.219 21.1125 113.917 21.8101 114.778 21.8101Z" fill="#E6E6E6"/>
<path d="M133.804 38.7886C135.542 38.7886 136.95 37.3802 136.95 35.6428C136.95 33.9054 135.542 32.497 133.804 32.497C132.067 32.497 130.658 33.9054 130.658 35.6428C130.658 37.3802 132.067 38.7886 133.804 38.7886Z" fill="#C9C9C9"/>
<path d="M128.066 59.2265C128.927 59.2265 129.625 58.5289 129.625 57.6683C129.625 56.8077 128.927 56.1101 128.066 56.1101C127.206 56.1101 126.508 56.8077 126.508 57.6683C126.508 58.5289 127.206 59.2265 128.066 59.2265Z" fill="#E6E6E6"/>
<defs>
<linearGradient id="paint0_linear_45_752" x1="46.1628" y1="60.8631" x2="71.8792" y2="116.722" gradientUnits="userSpaceOnUse">
<stop stop-color="#05C2C5"/>
<stop offset="1" stop-color="#8254FB"/>
</linearGradient>
</defs>
</svg>
