<svg width="121" height="28" viewBox="0 0 121 28" fill="none" xmlns="http://www.w3.org/2000/svg">
<g clip-path="url(#clip0_10_3)">
<path fill-rule="evenodd" clip-rule="evenodd" d="M40.6906 16.5206C40.7608 15.8979 40.8309 15.1236 40.8903 14.1976H45.2124C46.1567 14.1976 46.6262 13.7915 46.6262 13.028C46.6262 12.2646 46.1513 11.8855 45.2124 11.8855H40.9766V5.94005H44.662C45.5847 5.94005 46.0434 5.58267 46.0434 4.80294C46.0434 4.02321 45.5847 3.63334 44.662 3.63334H36.8326C37.3883 2.17676 37.6635 1.31038 37.6635 1.04506C37.6635 0.351963 37.2534 0 36.4333 0C35.7965 0 35.3703 0.379037 35.1436 1.13711C34.5717 3.29221 33.6328 5.54477 32.3216 7.88397C32.014 8.39838 31.8629 8.76658 31.8629 8.99401C31.8629 9.77374 32.2622 10.1636 33.0608 10.1636C33.4709 10.1636 33.827 9.95243 34.1346 9.51924C34.4044 9.16728 35.0087 7.97602 35.9476 5.94547H38.4945V11.8963H33.1849C32.2838 11.8963 31.8359 12.2591 31.8359 13.0389C31.8359 13.8186 32.2838 14.2085 33.1849 14.2085H38.3704C38.2679 16.6126 37.8362 18.6486 37.0808 20.3218C36.3253 21.995 35.1922 23.3324 33.6759 24.3396C32.4511 25.1572 31.8359 25.8666 31.8359 26.4622C31.8359 26.7925 31.9438 27.0578 32.1597 27.2636C32.3701 27.4693 32.6831 27.5722 33.0932 27.5722C34.1346 27.5722 35.4026 26.7708 36.8973 25.1681C38.4297 23.5274 39.5035 21.5834 40.1187 19.3471C40.2428 19.5529 40.3345 19.6883 40.3939 19.7478C41.2302 20.6304 42.0504 21.5726 42.849 22.5798C43.1134 22.9047 43.3778 23.262 43.6314 23.6411C43.703 23.7458 43.7684 23.8419 43.8277 23.9291L43.8278 23.9292C43.9831 24.1573 44.0968 24.3244 44.171 24.4262C44.5379 24.9406 44.9103 25.1951 45.2772 25.1951C46.1351 25.1951 46.5668 24.7836 46.5668 23.9606C46.5668 23.3433 45.8491 22.2441 44.4192 20.6629C43.0055 19.1035 42.0126 18.2696 41.4407 18.1667C41.2788 18.1505 41.0953 18.1667 40.8903 18.2154C40.6852 18.2642 40.5018 18.3508 40.3399 18.4753C40.5018 17.7985 40.6205 17.1487 40.6906 16.5206ZM55.5618 26.2456C56.668 26.3268 57.472 26.1156 57.9738 25.6121C58.4756 25.1085 58.686 24.3017 58.6051 23.1916V5.72887C58.6051 4.6784 58.3569 3.94198 57.8659 3.5088C57.3317 3.03771 56.5654 2.79946 55.5618 2.79946H50.3439C49.254 2.79946 48.5201 3.03771 48.1316 3.5088C47.6622 4.08277 47.4248 4.8625 47.4248 5.848V23.1916C47.3438 24.3017 47.5543 25.1085 48.0561 25.6121C48.5579 26.1156 49.3619 26.3268 50.4681 26.2456H55.5618ZM56.0852 6.74144V22.2982C56.1068 23.3054 55.6158 23.8089 54.6121 23.8089H51.4177C50.4141 23.8089 49.9123 23.3054 49.9123 22.2982V6.74144C49.9123 5.73429 50.4141 5.23071 51.4177 5.23071H54.6121C55.5942 5.23071 56.0852 5.73429 56.0852 6.74144ZM1.34891 8.56623C0.447789 8.56623 -7.24094e-05 9.01566 -7.24094e-05 9.91994H-0.0108643C-0.0108643 10.4722 0.652834 11.03 1.98563 11.5823C2.07541 11.6155 2.31829 11.7151 2.71427 11.8775L2.89214 11.9505C3.39396 12.1563 3.72851 12.2591 3.89039 12.2591C4.71057 12.2591 5.12066 11.8097 5.12066 10.9054C5.12066 10.2286 4.57028 9.67627 3.46411 9.24308C2.2824 8.79366 1.57554 8.56623 1.34891 8.56623ZM4.144 22.3686C5.10447 19.4717 5.58471 17.7768 5.58471 17.2841L5.59011 17.2895C5.59011 16.4069 5.14764 15.9629 4.2681 15.9629C3.58822 15.9629 3.15115 16.4069 2.9461 17.2895C2.25003 20.0023 1.34351 22.6502 0.215765 25.2384C0.0700746 25.585 -7.24094e-05 25.872 -7.24094e-05 26.0994C-7.24094e-05 27.0632 0.474769 27.5452 1.41366 27.5452C1.86692 27.5452 2.23384 27.3394 2.51982 26.9279C2.66012 26.7004 3.20511 25.1843 4.144 22.3686ZM4.78611 4.34809C5.62248 4.34809 6.04336 3.84452 6.04336 2.83736V2.83195C6.04336 2.27963 5.58471 1.79772 4.66201 1.38619C3.65836 0.936761 2.97308 0.709339 2.60616 0.709339C1.72123 0.709339 1.28416 1.14252 1.28416 2.00348C1.28416 2.49623 1.54856 2.88609 2.08275 3.17308L3.49649 3.91491C4.13321 4.20731 4.55948 4.34809 4.78611 4.34809ZM26.645 27.5343C27.4814 27.5343 27.9023 27.0849 27.9023 26.1806H27.9184C27.9184 25.6879 27.6109 25.2439 26.9957 24.854C25.5442 23.9714 24.4111 22.8992 23.5909 21.6484C24.8158 20.7658 25.7331 20.0294 26.3374 19.4446C26.9418 18.8598 27.244 18.3941 27.244 18.0422C27.244 17.3003 26.8123 16.9321 25.9543 16.9321C25.7871 16.9321 25.6144 17.0079 25.4309 17.1487C25.2421 17.2895 24.9992 17.5169 24.6917 17.8256L22.6682 19.8886C22.2149 18.9031 21.9074 17.6306 21.7455 16.0712H26.6558C27.476 16.0712 27.8861 15.6813 27.8861 14.9611C27.8861 14.241 27.476 13.8836 26.6558 13.8836H17.8442V11.696H25.2421C25.609 11.696 25.8896 11.6094 26.0838 11.4361C26.2781 11.2628 26.3752 11.0137 26.3752 10.6834C26.3752 9.99033 25.9975 9.63837 25.2421 9.63837H17.8442V7.54283H25.2421C25.9975 7.54283 26.3752 7.19629 26.3752 6.49777C26.3752 6.17289 26.2781 5.91839 26.0838 5.74511C25.8896 5.57184 25.609 5.4852 25.2421 5.4852H17.8442V4.15858C17.882 3.64417 18.141 3.38967 18.6105 3.38967H26.1594C26.9957 3.38967 27.4166 3.02146 27.4166 2.27963C27.4166 1.53781 26.9957 1.1696 26.1594 1.1696H17.963C16.3064 1.1696 15.4754 2.00348 15.4754 3.66583V13.8998H14.3099C13.5113 13.8998 13.112 14.2572 13.112 14.9774C13.112 15.0857 13.1228 15.1669 13.1444 15.2265C12.7937 14.6687 12.2325 14.3926 11.4555 14.3926H8.96795C8.47692 14.3926 8.22871 14.2193 8.22871 13.8673V13.8078L8.53628 10.5102C8.55786 10.3477 8.62261 10.2178 8.73593 10.1257C8.84924 10.0282 8.98954 9.98491 9.15141 9.98491H11.3907C13.0041 9.98491 13.8135 9.19435 13.8135 7.61323V3.51421C13.8135 1.95475 13.0095 1.17501 11.3907 1.17501H7.79704C6.83656 1.17501 6.35633 1.54322 6.35633 2.34461C6.35633 3.14601 6.83656 3.5467 7.79704 3.5467H10.5598C11.1533 3.59002 11.4501 3.85535 11.4501 4.34809V6.96345C11.4069 7.49951 11.1425 7.76484 10.6515 7.76484H8.47153C7.81862 7.78109 7.30601 8.00309 6.93909 8.4092C6.57216 8.81531 6.35633 9.36221 6.29697 10.0391C6.29697 10.0986 6.23762 10.743 6.11351 11.9776C5.9894 13.2121 5.93005 14.1327 5.93005 14.7499C5.93005 16.0008 6.6585 16.6289 8.11 16.6289H10.1982C10.7702 16.6289 11.0562 16.9375 11.0562 17.5548C11.0562 18.1125 10.9644 19.1684 10.781 20.7279C10.5759 22.4119 10.3547 23.614 10.1065 24.3342C9.85828 24.9894 9.29711 25.2872 8.41757 25.2276L7.46789 25.168C6.58296 25.168 6.14589 25.585 6.14589 26.4297C6.14589 27.334 6.66929 27.7834 7.7107 27.7834C9.67482 27.7834 10.9537 27.4531 11.5472 26.7979C12.0005 26.2835 12.3674 25.2872 12.6534 23.8089C12.9394 22.3307 13.1768 20.3489 13.3602 17.8635C13.3764 17.6577 13.398 17.4519 13.4196 17.2462C13.4412 17.0404 13.452 16.8347 13.452 16.6289C13.452 16.2769 13.4196 15.9683 13.3602 15.703C13.5437 15.9466 13.8836 16.0712 14.3747 16.0712H15.4485V24.3558L13.2685 25.0056C12.8422 25.2276 12.6264 25.6066 12.6264 26.1427C12.6264 26.982 13.0041 27.4044 13.7595 27.4044C14.1049 27.4044 14.7794 27.2419 15.783 26.9116L16.4251 26.695C17.3856 26.3918 18.3784 26.0398 19.4037 25.65C20.1375 25.363 20.6771 25.0868 21.0278 24.8323C21.3786 24.5778 21.5512 24.2963 21.5512 23.9876C21.5512 23.2079 21.1951 22.818 20.4775 22.818C20.294 22.818 20.1321 22.8505 19.9864 22.9101L17.7147 23.744V16.0766H19.6465C19.8731 18.1505 20.3156 19.9698 20.9685 21.5293C21.643 23.1321 22.6142 24.5345 23.8823 25.7474C25.1126 26.9387 26.0299 27.5343 26.645 27.5343ZM62.6143 6.58983C62.6143 5.83176 63.0513 5.45272 63.9363 5.45272H70.4761C71.3773 5.45272 71.8251 5.83176 71.8251 6.58983C71.8251 7.34791 71.3773 7.72694 70.4761 7.72694H63.9363C63.0567 7.72694 62.6143 7.34791 62.6143 6.58983ZM63.5046 2.43126C63.5046 1.67318 63.9525 1.29415 64.8536 1.29415H69.9797C70.8808 1.29415 71.3287 1.67318 71.3287 2.43126C71.3287 3.18933 70.8808 3.57378 69.9797 3.57378H64.8536C63.9525 3.57378 63.5046 3.19475 63.5046 2.43126ZM64.2546 26.2727C63.8338 25.8612 63.6233 25.2547 63.6233 24.4533V20.1702C63.6233 18.5457 64.4435 17.7389 66.0785 17.7389H68.8735C70.5301 17.7389 71.3611 18.5512 71.3611 20.1702V24.3883C71.3611 26.0507 70.5301 26.8846 68.8735 26.8846H66.0785C65.2799 26.8846 64.6701 26.6788 64.2546 26.2673V26.2727ZM63.6557 10.6564C63.6557 9.93619 64.0766 9.57881 64.9129 9.57881H69.7315C70.5679 9.57881 70.9887 9.94702 70.9887 10.6888C70.9887 11.4307 70.5679 11.7664 69.7315 11.7664H64.9129C64.0712 11.7664 63.6557 11.3982 63.6557 10.6564ZM63.6557 14.7824C63.6557 14.0406 64.0766 13.6724 64.9129 13.6724H69.8232C70.6812 13.6724 71.1128 14.0406 71.1128 14.7824C71.1128 15.5243 70.6812 15.86 69.8232 15.86H64.9129C64.0712 15.86 63.6557 15.5026 63.6557 14.7824ZM69.3052 23.993V20.6034C69.3052 20.1106 69.0516 19.8453 68.539 19.802H66.4508C65.9597 19.802 65.7061 20.0673 65.6846 20.6034V23.993C65.6846 24.5291 65.9382 24.7944 66.4508 24.7944H68.539C69.03 24.7944 69.2836 24.5291 69.3052 23.993ZM78.6995 26.917C78.6995 26.5055 79.0556 26.094 79.7733 25.6825C81.554 24.6374 83.0378 23.3541 84.2249 21.8325C83.653 19.6125 83.2753 16.5044 83.0918 12.4974H72.4403C71.6417 12.4974 71.2424 12.1292 71.2424 11.3874C71.2424 10.6455 71.6417 10.299 72.4403 10.2773H73.881C73.8378 9.0265 73.6867 7.4562 73.4223 5.56643H72.8396C72.1003 5.56643 71.7334 5.21989 71.7334 4.52137C71.7334 3.82286 72.1003 3.44383 72.8396 3.44383H75.9422V1.32663C75.9422 0.487339 76.3415 0.0649831 77.1401 0.0649831C77.9387 0.0649831 78.338 0.487339 78.338 1.32663V3.45466H81.4676C82.1421 3.45466 82.4821 3.8012 82.4821 4.49972C82.4821 5.19823 82.1637 5.57726 81.5324 5.57726H80.7931V6.1025L80.3345 10.2936H83.0055L82.9461 1.35912C82.9461 0.45485 83.3238 0.0054201 84.0793 0.0054201C84.8347 0.0054201 85.2124 0.498168 85.2124 1.48366L85.2448 10.2936H89.2647C90.1659 10.2936 90.6137 10.6618 90.6137 11.4036C90.6137 12.1454 90.1659 12.5136 89.2647 12.5136H85.2718L85.3041 13.315C85.3635 15.6163 85.5308 17.5657 85.7952 19.1684C86.4481 17.9555 86.9607 16.6235 87.3276 15.1669C87.5326 14.2843 87.9427 13.8403 88.5579 13.8403C89.3133 13.8403 89.691 14.1489 89.691 14.7662C89.691 15.1182 89.5453 15.6109 89.2593 16.2444L88.7683 17.4465C88.0129 19.293 87.2413 20.8146 86.4643 22.0058C87.0146 23.9768 87.538 24.9623 88.0291 24.9623C88.4769 24.9623 88.7036 24.1013 88.7036 22.374C88.7036 21.9841 88.7899 21.6809 88.9626 21.4643C89.1352 21.2477 89.3888 21.1394 89.7126 21.1394C90.3655 21.1394 90.6947 21.551 90.6947 22.374C90.6947 23.771 90.4572 25.0543 89.9878 26.2239C89.5399 27.3502 88.9356 27.9188 88.1748 27.9188C87.0092 27.9188 85.9247 26.6355 84.921 24.0689C84.1224 25.011 83.1889 25.8991 82.1259 26.7167C80.9982 27.5777 80.205 28.0108 79.7301 28.0108C79.0341 28.0108 78.6887 27.6535 78.6887 26.9333L78.6995 26.917ZM72.8342 23.0021V16.0766C72.8342 15.3781 73.0068 14.8474 73.3576 14.49C73.7029 14.1327 74.2155 13.9486 74.89 13.9486H79.3416C80.7554 13.9486 81.4622 14.6579 81.4622 16.0712V22.7531C81.4622 24.3342 80.6852 25.1247 79.1312 25.1247H74.9548C73.541 25.1247 72.8342 24.4154 72.8342 23.0021ZM79.374 16.6939C79.374 16.1416 79.0988 15.86 78.543 15.86H75.7803C75.2084 15.86 74.9224 16.1362 74.9224 16.6939V18.6324H79.374V16.6939ZM79.374 22.4228V20.4193H74.9224V22.4228C74.9224 22.9751 75.2084 23.2566 75.7803 23.2566H78.543C79.0934 23.2566 79.374 22.9805 79.374 22.4228ZM78.8236 5.57185H75.3864C75.5483 6.55734 75.694 8.08974 75.8181 10.1636L75.8505 10.2882H78.4297L78.829 5.57726L78.8236 5.57185ZM87.5704 7.4183L86.556 5.01412L86.4319 4.52137C86.4319 3.86618 86.7772 3.53588 87.4733 3.53588C87.9212 3.53588 88.396 4.06112 88.887 5.10617L89.6532 6.73603C89.8151 7.1259 89.9015 7.44537 89.9015 7.68904C89.9015 8.40921 89.5237 8.76659 88.7683 8.76659C88.2557 8.76659 87.8564 8.31716 87.5704 7.41289V7.4183ZM103.256 24.9785C102.129 24.9785 101.567 25.4226 101.567 26.3052H101.578C101.578 27.2094 102.139 27.6589 103.267 27.6589H105.938C107.141 27.7617 108.026 27.5289 108.577 26.9658C109.133 26.4026 109.365 25.4929 109.284 24.2421V11.7068C109.284 11.0516 109.785 10.4831 110.789 10.012C112.694 9.09147 114.922 7.81899 117.48 6.19454C118.521 5.53935 119.331 4.9708 119.903 4.49971C120.475 4.0232 120.761 3.68749 120.761 3.48172C120.761 2.95107 120.577 2.5612 120.221 2.31212C119.865 2.06846 119.304 1.94392 118.548 1.94392H96.8784C96.3442 1.94392 95.9557 2.04138 95.7129 2.23632C95.4701 2.43125 95.346 2.73448 95.346 3.146C95.346 3.55753 95.4647 3.86076 95.7129 4.05569C95.9557 4.25063 96.3442 4.34809 96.8784 4.34809H115.262C115.386 4.34809 115.489 4.386 115.57 4.45639C115.651 4.52678 115.694 4.62425 115.694 4.74879C115.694 4.87333 115.581 5.0087 115.354 5.14949L114.032 5.95088C113.644 6.15664 112.5 6.74144 110.595 7.70528L109.764 8.10597C108.334 8.80449 107.481 9.31348 107.217 9.64378C106.909 9.99033 106.758 10.5318 106.758 11.2736V23.4678C106.775 24.475 106.278 24.9785 105.253 24.9785H103.256Z" fill="url(#paint0_linear_10_3)"/>
</g>
<defs>
<linearGradient id="paint0_linear_10_3" x1="-6.05881e-05" y1="14.0785" x2="23.4049" y2="61.8398" gradientUnits="userSpaceOnUse">
<stop stop-color="#05C2C5"/>
<stop offset="1" stop-color="#8254FB"/>
</linearGradient>
<clipPath id="clip0_10_3">
<rect width="120.75" height="28" fill="white"/>
</clipPath>
</defs>
</svg>
