<svg width="40" height="40" viewBox="0 0 40 40" fill="none" xmlns="http://www.w3.org/2000/svg">
<g clip-path="url(#clip0_50_290)">
<path d="M23.4357 16.5857V21.6643C23.4357 21.7929 23.3357 21.8929 23.2072 21.8929H22.3929C22.3143 21.8929 22.2429 21.85 22.2072 21.8L19.8786 18.6571V21.6714C19.8786 21.8 19.7786 21.9 19.65 21.9H18.8357C18.7072 21.9 18.6072 21.8 18.6072 21.6714V16.5929C18.6072 16.4643 18.7072 16.3643 18.8357 16.3643H19.6429C19.7143 16.3643 19.7929 16.4 19.8286 16.4643L22.1572 19.6071V16.5929C22.1572 16.4643 22.2572 16.3643 22.3857 16.3643H23.2C23.3286 16.3571 23.4357 16.4643 23.4357 16.5857ZM17.5786 16.3571H16.7643C16.6357 16.3571 16.5357 16.4571 16.5357 16.5857V21.6643C16.5357 21.7929 16.6357 21.8929 16.7643 21.8929H17.5786C17.7072 21.8929 17.8072 21.7929 17.8072 21.6643V16.5857C17.8072 16.4643 17.7072 16.3571 17.5786 16.3571ZM15.6143 20.6143H13.3929V16.5857C13.3929 16.4571 13.2929 16.3571 13.1643 16.3571H12.35C12.2214 16.3571 12.1214 16.4571 12.1214 16.5857V21.6643C12.1214 21.7286 12.1429 21.7786 12.1857 21.8214C12.2286 21.8571 12.2786 21.8857 12.3429 21.8857H15.6072C15.7357 21.8857 15.8357 21.7857 15.8357 21.6571V20.8429C15.8357 20.7214 15.7357 20.6143 15.6143 20.6143ZM27.7214 16.3571H24.4572C24.3357 16.3571 24.2286 16.4571 24.2286 16.5857V21.6643C24.2286 21.7857 24.3286 21.8929 24.4572 21.8929H27.7214C27.85 21.8929 27.95 21.7929 27.95 21.6643V20.85C27.95 20.7214 27.85 20.6214 27.7214 20.6214H25.5V19.7643H27.7214C27.85 19.7643 27.95 19.6643 27.95 19.5357V18.7143C27.95 18.5857 27.85 18.4857 27.7214 18.4857H25.5V17.6286H27.7214C27.85 17.6286 27.95 17.5286 27.95 17.4V16.5857C27.9429 16.4643 27.8429 16.3571 27.7214 16.3571ZM36 10.1214V30.5C35.9929 33.7 33.3714 36.2929 30.1643 36.2857H9.78573C6.58573 36.2786 3.99287 33.65 4.00001 30.45V10.0714C4.00716 6.87143 6.63573 4.27857 9.83573 4.28571H30.2143C33.4143 4.29286 36.0072 6.91429 36 10.1214ZM31.6 18.8786C31.6 13.6643 26.3714 9.42143 19.95 9.42143C13.5286 9.42143 8.30001 13.6643 8.30001 18.8786C8.30001 23.55 12.4429 27.4643 18.0429 28.2071C19.4072 28.5 19.25 29 18.9429 30.8357C18.8929 31.1286 18.7072 31.9857 19.95 31.4643C21.1929 30.9429 26.6572 27.5143 29.1072 24.7C30.7929 22.8429 31.6 20.9643 31.6 18.8786Z" fill="white"/>
</g>
<defs>
<clipPath id="clip0_50_290">
<rect width="32" height="36.5714" fill="white" transform="translate(4 2)"/>
</clipPath>
</defs>
</svg>
