<svg width="968" height="730" viewBox="0 0 968 730" fill="none" xmlns="http://www.w3.org/2000/svg">
<g opacity="0.45" filter="url(#filter0_f_59_342)">
<path d="M479.765 666.949C699.29 666.949 877.25 647.522 877.25 623.558C877.25 599.593 699.29 580.166 479.765 580.166C260.24 580.166 82.28 599.593 82.28 623.558C82.28 647.522 260.24 666.949 479.765 666.949Z" fill="#030418"/>
</g>
<path d="M724.814 538.058L691.926 616.584L682.537 614.768L699.864 532.634L724.814 538.058Z" fill="#F4A28C"/>
<path d="M683.239 614.889C683.239 614.889 676.777 620.458 670.219 618.86C663.661 617.262 660.878 626.439 671.719 627.529C675.088 627.879 678.479 627.952 681.859 627.747C684.966 627.627 688.048 628.337 690.789 629.805C691.333 630.044 691.937 630.112 692.521 629.999C693.104 629.887 693.64 629.599 694.056 629.175C697.783 626.197 691.926 616.584 691.926 616.584L683.239 614.889Z" fill="#05C2C5"/>
<path d="M779.046 524.111L813.217 602.056L805.424 607.625L757.896 538.445L779.046 524.111Z" fill="#F4A28C"/>
<path d="M806.005 607.141C806.005 607.141 805.594 615.664 799.907 619.248C794.22 622.831 798.939 631.355 807.167 624.09C809.744 621.872 812.132 619.442 814.306 616.826C816.36 614.489 819 612.742 821.953 611.765C822.501 611.535 822.966 611.142 823.286 610.641C823.606 610.139 823.766 609.551 823.744 608.957C824.155 604.114 813.168 601.813 813.168 601.813L806.005 607.141Z" fill="#05C2C5"/>
<path d="M548.348 291.535V204.291H620.827" stroke="#A5A5A5" stroke-width="4.06" stroke-linecap="round" stroke-linejoin="round"/>
<path d="M635.516 218.65C643.629 218.65 650.206 212.07 650.206 203.952C650.206 195.835 643.629 189.254 635.516 189.254C627.404 189.254 620.827 195.835 620.827 203.952C620.827 212.07 627.404 218.65 635.516 218.65Z" stroke="#E6E6E6" stroke-width="4.06" stroke-linecap="round" stroke-linejoin="round"/>
<path d="M513.306 281.219V112.568" stroke="#A5A5A5" stroke-width="4.06" stroke-linecap="round" stroke-linejoin="round"/>
<path d="M513.306 112.544C521.419 112.544 527.996 105.964 527.996 97.8464C527.996 89.7289 521.419 83.1484 513.306 83.1484C505.194 83.1484 498.617 89.7289 498.617 97.8464C498.617 105.964 505.194 112.544 513.306 112.544Z" stroke="#E6E6E6" stroke-width="4.06" stroke-linecap="round" stroke-linejoin="round"/>
<path d="M466.31 326.088V157.437" stroke="#A5A5A5" stroke-width="4.06" stroke-linecap="round" stroke-linejoin="round"/>
<path d="M466.31 157.413C474.423 157.413 480.999 150.832 480.999 142.715C480.999 134.598 474.423 128.017 466.31 128.017C458.197 128.017 451.62 134.598 451.62 142.715C451.62 150.832 458.197 157.413 466.31 157.413Z" stroke="#E6E6E6" stroke-width="4.06" stroke-linecap="round" stroke-linejoin="round"/>
<path d="M419.483 281.97V113.319" stroke="#A5A5A5" stroke-width="4.06" stroke-linecap="round" stroke-linejoin="round"/>
<path d="M383.643 291.535V204.291H311.139" stroke="#A5A5A5" stroke-width="4.06" stroke-linecap="round" stroke-linejoin="round"/>
<path d="M419.217 442.606L407.891 569.342L352.013 622.468H580.195L528.528 569.342L503.433 442.606H419.217Z" fill="url(#paint0_linear_59_342)"/>
<path d="M350.779 291.535H375.802V390.57H350.779C337.705 390.57 325.167 385.373 315.922 376.123C306.677 366.873 301.484 354.328 301.484 341.246V340.786C301.503 327.717 306.705 315.19 315.947 305.956C325.19 296.721 337.718 291.535 350.779 291.535V291.535Z" fill="url(#paint1_linear_59_342)"/>
<path d="M583.196 390.57H558.173V291.535H583.196C589.669 291.535 596.08 292.81 602.06 295.289C608.041 297.768 613.475 301.401 618.053 305.981C622.63 310.561 626.262 315.999 628.739 321.983C631.216 327.967 632.491 334.381 632.491 340.859V341.319C632.472 354.388 627.27 366.915 618.027 376.149C608.785 385.383 596.257 390.57 583.196 390.57V390.57Z" fill="url(#paint2_linear_59_342)"/>
<path opacity="0.08" d="M350.779 291.535H375.802V390.57H350.779C337.705 390.57 325.167 385.373 315.922 376.123C306.677 366.873 301.484 354.328 301.484 341.246V340.786C301.503 327.717 306.705 315.19 315.947 305.956C325.19 296.721 337.718 291.535 350.779 291.535V291.535Z" fill="black"/>
<path opacity="0.08" d="M583.196 390.57H558.173V291.535H583.196C589.669 291.535 596.08 292.81 602.06 295.289C608.041 297.768 613.475 301.401 618.053 305.981C622.63 310.561 626.262 315.999 628.739 321.983C631.216 327.967 632.491 334.381 632.491 340.859V341.319C632.472 354.388 627.27 366.915 618.027 376.149C608.785 385.383 596.257 390.57 583.196 390.57V390.57Z" fill="black"/>
<path opacity="0.08" d="M414.594 494.279L410.795 536.92C410.795 536.92 486.977 557.744 517.88 515.636L514.347 497.766L414.594 494.279Z" fill="black"/>
<path d="M355.74 263.713H580.195V395.752C580.195 425.421 568.416 453.876 547.448 474.855C526.481 495.835 498.043 507.621 468.391 507.621H467.544C437.892 507.621 409.454 495.835 388.487 474.855C367.519 453.876 355.74 425.421 355.74 395.752V263.713Z" fill="#F5F1FF"/>
<path d="M453.048 353.716L443.126 430.79H489.663L475.167 353.716H453.048Z" fill="url(#paint3_linear_59_342)"/>
<path d="M296.45 218.65C304.563 218.65 311.139 212.07 311.139 203.952C311.139 195.835 304.563 189.254 296.45 189.254C288.337 189.254 281.761 195.835 281.761 203.952C281.761 212.07 288.337 218.65 296.45 218.65Z" stroke="#E6E6E6" stroke-width="4.06" stroke-linecap="round" stroke-linejoin="round"/>
<path d="M419.483 113.319C427.596 113.319 434.172 106.739 434.172 98.6212C434.172 90.5038 427.596 83.9233 419.483 83.9233C411.37 83.9233 404.793 90.5038 404.793 98.6212C404.793 106.739 411.37 113.319 419.483 113.319Z" stroke="#E6E6E6" stroke-width="4.06" stroke-linecap="round" stroke-linejoin="round"/>
<path d="M317.552 507.064H229.222V622.492H317.552V507.064Z" fill="#F5F1FF"/>
<path opacity="0.58" d="M265.111 482.099C265.111 482.099 245.001 476.603 240.621 457.885C240.621 457.885 271.79 451.589 272.661 483.77L265.111 482.099Z" fill="url(#paint4_linear_59_342)"/>
<path opacity="0.73" d="M267.579 480.114C267.579 480.114 253.519 457.861 265.885 437.085C265.885 437.085 289.577 452.146 279.05 480.162L267.579 480.114Z" fill="url(#paint5_linear_59_342)"/>
<path d="M271.185 480.114C271.185 480.114 278.615 456.65 301.072 452.195C301.072 452.195 305.283 467.45 286.552 480.186L271.185 480.114Z" fill="url(#paint6_linear_59_342)"/>
<path d="M256.617 479.581L260.682 507.5L286.359 507.621L290.158 479.726L256.617 479.581Z" fill="#24285B"/>
<path opacity="0.02" d="M317.552 537.525C317.552 537.525 305.961 603.799 229.222 594.573V622.468H317.552V537.525Z" fill="black"/>
<path d="M727.525 288.411C727.525 288.411 758.67 301.075 732.824 360.012C706.979 418.949 659.353 486.942 570.297 444.204C567.624 445.841 564.458 446.48 561.36 446.011C558.261 445.541 555.427 443.993 553.357 441.638C545.686 433.138 564.417 429.845 570.781 435.511C570.781 435.511 660.95 432.799 670.582 379.383C680.214 325.967 688.296 272.527 727.525 288.411Z" fill="#F4A28C"/>
<path opacity="0.08" d="M727.525 288.411C727.525 288.411 758.67 301.075 732.824 360.012C706.979 418.949 659.353 486.942 570.297 444.204C567.624 445.841 564.458 446.48 561.36 446.011C558.261 445.541 555.427 443.993 553.357 441.638C545.686 433.138 564.417 429.845 570.781 435.511C570.781 435.511 660.95 432.799 670.582 379.383C680.214 325.967 688.296 272.527 727.525 288.411Z" fill="black"/>
<path d="M697.444 224.002C696.402 229.915 696.15 235.94 696.694 241.92C696.925 243.345 697.713 244.62 698.884 245.465C700.055 246.309 701.513 246.654 702.937 246.424C705.226 246.173 707.396 245.275 709.192 243.834C710.988 242.393 712.336 240.469 713.077 238.288L717.143 229.159C717.775 227.259 717.802 225.209 717.221 223.292C716.64 221.376 715.48 219.686 713.9 218.457C708.165 213.541 698.291 217.464 697.444 224.002Z" fill="#F4A28C"/>
<path d="M717.699 232.961L721.112 268.192L701.558 268.676L706.809 243.494L717.699 232.961Z" fill="#F4A28C"/>
<path d="M696.597 230.757L693.233 234.632C693.043 234.85 692.91 235.112 692.849 235.395C692.787 235.678 692.797 235.972 692.879 236.25C692.961 236.528 693.112 236.781 693.318 236.984C693.524 237.188 693.778 237.337 694.056 237.416L698.097 238.578L696.597 230.757Z" fill="#F4A28C"/>
<path opacity="0.31" d="M706.64 244.196C708.982 243.724 711.15 242.618 712.908 241C712.908 241 714.384 248.603 705.14 251.412L706.64 244.196Z" fill="#CE8172"/>
<path d="M709.06 232.743C709.06 232.743 709.496 228.602 712.593 229.208C715.691 229.813 715.013 235.794 710.778 235.963L709.06 232.743Z" fill="#F4A28C"/>
<path d="M699.743 223.687C703.033 224.832 706.496 225.406 709.98 225.382C709.98 225.382 710.149 237.489 719.03 242.138C719.03 242.138 730.912 225.987 721.136 217.294C712.98 210.03 707.027 203.783 698.363 209.352C697.109 210.154 696.101 211.287 695.449 212.627C694.798 213.966 694.528 215.459 694.671 216.942C694.814 218.424 695.363 219.839 696.258 221.029C697.153 222.219 698.359 223.139 699.743 223.687V223.687Z" fill="#24285B"/>
<path d="M728.057 224.026C733.991 224.026 738.802 219.212 738.802 213.275C738.802 207.337 733.991 202.524 728.057 202.524C722.123 202.524 717.312 207.337 717.312 213.275C717.312 219.212 722.123 224.026 728.057 224.026Z" fill="#24285B"/>
<path d="M708.745 231.581C708.745 231.581 710.004 226.931 713.585 228.312C717.167 229.692 716.247 235.213 711.165 236.593L708.745 231.581Z" fill="#F4A28C"/>
<path d="M789.065 437.037L801.625 546.557H684.86L705.14 445.342L789.065 437.037Z" fill="#24285B"/>
<path d="M646.309 430.378L637.815 420.232C638.732 417.518 639.333 414.706 639.606 411.854L651.537 406.043C652.618 405.496 653.47 404.582 653.94 403.464C654.41 402.346 654.468 401.097 654.102 399.941L647.422 379.311C647.064 378.138 646.292 377.136 645.25 376.49C644.209 375.845 642.969 375.599 641.76 375.8L628.692 378.051C626.775 375.932 624.651 374.009 622.351 372.313L623.271 359.164C623.366 357.945 623.013 356.733 622.278 355.757C621.542 354.78 620.475 354.106 619.278 353.862L598.006 349.309C596.821 349.042 595.58 349.217 594.515 349.801C593.45 350.386 592.635 351.338 592.222 352.481L587.649 365C584.865 365.619 582.15 366.512 579.541 367.664L568.53 360.157C567.509 359.51 566.292 359.242 565.093 359.401C563.894 359.561 562.79 360.137 561.972 361.029L547.452 377.131C546.633 378.037 546.165 379.208 546.134 380.429C546.103 381.651 546.511 382.843 547.283 383.79L555.777 393.936C555.293 395.461 554.906 396.817 554.64 398.076C554.351 399.477 554.133 400.891 553.986 402.314L542.08 408.101C540.995 408.644 540.14 409.558 539.669 410.677C539.199 411.796 539.144 413.047 539.515 414.203L546.194 434.833C546.548 436.008 547.319 437.014 548.362 437.66C549.405 438.307 550.647 438.55 551.857 438.344L564.925 436.092C566.833 438.212 568.949 440.134 571.241 441.831L570.345 454.979C570.25 456.199 570.603 457.411 571.339 458.387C572.074 459.364 573.141 460.038 574.339 460.282L595.586 464.835C596.774 465.097 598.016 464.921 599.084 464.338C600.152 463.754 600.972 462.804 601.394 461.663L605.944 449.241C608.73 448.644 611.447 447.76 614.051 446.601L625.086 454.011C626.094 454.696 627.317 454.988 628.526 454.832C629.734 454.676 630.843 454.082 631.644 453.163L646.164 436.988C646.967 436.083 647.423 434.921 647.45 433.71C647.476 432.499 647.072 431.318 646.309 430.378V430.378ZM592.9 425.535C589.244 424.753 585.902 422.903 583.297 420.22C580.692 417.537 578.941 414.142 578.265 410.463C577.588 406.784 578.018 402.987 579.499 399.552C580.979 396.117 583.445 393.199 586.583 391.166C589.722 389.134 593.392 388.078 597.13 388.133C600.868 388.188 604.506 389.351 607.584 391.475C610.661 393.598 613.04 396.588 614.42 400.065C615.799 403.541 616.117 407.349 615.333 411.007C614.271 415.903 611.315 420.179 607.112 422.901C602.908 425.624 597.799 426.571 592.9 425.535V425.535Z" fill="#24285B"/>
<path d="M712.666 268.144C712.666 268.144 758.041 257.586 777.304 313.109C791.534 354.079 789.065 437.109 789.065 437.109L696.718 446.238C696.718 446.238 709.98 401.466 676.39 390.836C645.68 381.151 631.523 339.188 678.302 284.295C682.579 279.344 687.849 275.348 693.769 272.566C699.689 269.783 706.127 268.277 712.666 268.144V268.144Z" fill="url(#paint7_linear_59_342)"/>
<path opacity="0.08" d="M709.06 444.906L754.725 440.378C754.725 440.378 784.733 376.139 780.474 323.836C780.474 323.836 772.222 290.566 753.443 277.66C734.664 264.754 724.984 388.052 724.984 388.052L709.06 444.906Z" fill="black"/>
<path d="M741.899 271.243C741.899 271.243 775.102 276.57 763.171 339.817C751.241 403.065 720.192 480.065 623.779 458.466C621.539 460.674 618.591 462.019 615.455 462.262C612.32 462.506 609.2 461.633 606.646 459.798C597.256 453.26 614.777 445.802 622.255 449.919C622.255 449.919 709.496 426.94 706.955 372.724C704.414 318.509 700.082 264.633 741.899 271.243Z" fill="#F4A28C"/>
<path d="M595.949 430.208C607.604 430.208 617.052 420.755 617.052 409.094C617.052 397.432 607.604 387.979 595.949 387.979C584.295 387.979 574.847 397.432 574.847 409.094C574.847 420.755 584.295 430.208 595.949 430.208Z" stroke="#24285B" stroke-width="5.075" stroke-miterlimit="10"/>
<path opacity="0.15" d="M595.949 430.208C607.604 430.208 617.052 420.755 617.052 409.094C617.052 397.432 607.604 387.979 595.949 387.979C584.295 387.979 574.847 397.432 574.847 409.094C574.847 420.755 584.295 430.208 595.949 430.208Z" stroke="white" stroke-width="5.075" stroke-miterlimit="10"/>
<path d="M229.222 574.597H170.61V622.468H229.222V574.597Z" fill="#F5F1FF"/>
<path d="M691.66 273.592C691.66 273.592 687.595 269.064 699.38 262.09C711.165 255.117 728.71 251.799 729.315 267.853C729.315 267.853 708.455 265.722 691.66 273.592Z" fill="#8254FB"/>
<path opacity="0.46" d="M691.66 273.592C691.66 273.592 687.595 269.064 699.38 262.09C711.165 255.117 728.71 251.799 729.315 267.853C729.315 267.853 708.455 265.722 691.66 273.592Z" fill="url(#paint8_linear_59_342)"/>
<defs>
<filter id="filter0_f_59_342" x="72.28" y="570.166" width="814.97" height="106.783" filterUnits="userSpaceOnUse" color-interpolation-filters="sRGB">
<feFlood flood-opacity="0" result="BackgroundImageFix"/>
<feBlend mode="normal" in="SourceGraphic" in2="BackgroundImageFix" result="shape"/>
<feGaussianBlur stdDeviation="5" result="effect1_foregroundBlur_59_342"/>
</filter>
<linearGradient id="paint0_linear_59_342" x1="352.013" y1="442.606" x2="526.9" y2="664.477" gradientUnits="userSpaceOnUse">
<stop stop-color="#05C2C5"/>
<stop offset="1" stop-color="#8254FB"/>
</linearGradient>
<linearGradient id="paint1_linear_59_342" x1="301.484" y1="291.535" x2="396.573" y2="362.891" gradientUnits="userSpaceOnUse">
<stop stop-color="#05C2C5"/>
<stop offset="1" stop-color="#8254FB"/>
</linearGradient>
<linearGradient id="paint2_linear_59_342" x1="632.491" y1="390.57" x2="537.402" y2="319.213" gradientUnits="userSpaceOnUse">
<stop stop-color="#05C2C5"/>
<stop offset="1" stop-color="#8254FB"/>
</linearGradient>
<linearGradient id="paint3_linear_59_342" x1="443.126" y1="353.716" x2="511.333" y2="394.899" gradientUnits="userSpaceOnUse">
<stop stop-color="#05C2C5"/>
<stop offset="1" stop-color="#8254FB"/>
</linearGradient>
<linearGradient id="paint4_linear_59_342" x1="240.621" y1="457.387" x2="266.513" y2="488.833" gradientUnits="userSpaceOnUse">
<stop stop-color="#05C2C5"/>
<stop offset="1" stop-color="#8254FB"/>
</linearGradient>
<linearGradient id="paint5_linear_59_342" x1="260.797" y1="437.085" x2="294.682" y2="453.565" gradientUnits="userSpaceOnUse">
<stop stop-color="#05C2C5"/>
<stop offset="1" stop-color="#8254FB"/>
</linearGradient>
<linearGradient id="paint6_linear_59_342" x1="271.185" y1="452.195" x2="299.09" y2="482.393" gradientUnits="userSpaceOnUse">
<stop stop-color="#05C2C5"/>
<stop offset="1" stop-color="#8254FB"/>
</linearGradient>
<linearGradient id="paint7_linear_59_342" x1="648.109" y1="267.342" x2="822.088" y2="404.584" gradientUnits="userSpaceOnUse">
<stop stop-color="#05C2C5"/>
<stop offset="1" stop-color="#8254FB"/>
</linearGradient>
<linearGradient id="paint8_linear_59_342" x1="690.983" y1="256.312" x2="703.931" y2="285.035" gradientUnits="userSpaceOnUse">
<stop stop-color="#05C2C5"/>
<stop offset="1" stop-color="#8254FB"/>
</linearGradient>
</defs>
</svg>
