<svg width="196" height="148" viewBox="0 0 196 148" fill="none" xmlns="http://www.w3.org/2000/svg">
<path opacity="0.45" d="M96.2654 136.601C131.202 136.601 159.524 133.863 159.524 130.485C159.524 127.106 131.202 124.368 96.2654 124.368C61.3284 124.368 33.0064 127.106 33.0064 130.485C33.0064 133.863 61.3284 136.601 96.2654 136.601Z" fill="#E6E6E6"/>
<path d="M136.857 50.0924V128.055H56.7861V28.0062H113.087" fill="#E6E6E6"/>
<path d="M113.087 28.0062V50.0924H136.857L113.087 28.0062Z" fill="#24285B"/>
<path d="M99.5778 49.5279H92.1984V69.7094H99.5778V49.5279Z" fill="url(#paint0_linear_45_718)"/>
<path d="M105.958 63.3128V55.9196H85.8137V63.3128H105.958Z" fill="url(#paint1_linear_45_718)"/>
<path opacity="0.13" d="M80.8059 34.5501H63.1659V44.4518H80.8059V34.5501Z" fill="black"/>
<path opacity="0.33" d="M126.346 76.4104H67.7964V107.662H126.346V76.4104Z" fill="white"/>
<path d="M137.024 116.754H152.826C153.64 116.754 154.42 117.078 154.995 117.654C155.57 118.23 155.894 119.012 155.894 119.827V128.001H137.029V116.754H137.024Z" fill="#FFD200"/>
<path d="M140.767 87.3185H113.837V128.01H140.767V87.3185Z" fill="url(#paint2_linear_45_718)"/>
<path d="M141.36 83.4108H113.244C111.582 83.4108 110.235 84.7603 110.235 86.425V90.7009C110.235 92.3656 111.582 93.7151 113.244 93.7151H141.36C143.022 93.7151 144.369 92.3656 144.369 90.7009V86.425C144.369 84.7603 143.022 83.4108 141.36 83.4108Z" fill="url(#paint3_linear_45_718)"/>
<path opacity="0.13" d="M141.36 83.4108H113.244C111.582 83.4108 110.235 84.7603 110.235 86.425V90.7009C110.235 92.3656 111.582 93.7151 113.244 93.7151H141.36C143.022 93.7151 144.369 92.3656 144.369 90.7009V86.425C144.369 84.7603 143.022 83.4108 141.36 83.4108Z" fill="black"/>
<path opacity="0.46" d="M140.767 102.326H113.837V119.64H140.767V102.326Z" fill="white"/>
<path opacity="0.08" d="M120.854 115.468C120.854 115.468 130.516 116.68 121.52 128.001H113.837L116.003 116.749L120.854 115.468Z" fill="black"/>
<path d="M118.539 112.8L119.377 113.308C120.101 113.747 120.622 114.456 120.824 115.279C121.026 116.102 120.894 116.972 120.456 117.697L117.636 122.368L111.347 118.556L114.167 113.885C114.604 113.162 115.309 112.641 116.129 112.437C116.948 112.234 117.815 112.364 118.539 112.8Z" fill="#24285B"/>
<path d="M111.335 118.552L117.624 122.363L114.803 127.034C114.366 127.759 113.658 128.28 112.837 128.483C112.015 128.686 111.147 128.553 110.423 128.114L109.584 127.606C108.861 127.168 108.34 126.459 108.138 125.636C107.936 124.813 108.068 123.943 108.506 123.218L111.326 118.547L111.335 118.552Z" fill="url(#paint4_linear_45_718)"/>
<path d="M110.056 112.8L110.895 113.308C111.619 113.747 112.139 114.456 112.341 115.279C112.544 116.102 112.411 116.972 111.973 117.697L109.153 122.368L102.864 118.557L105.684 113.886C106.121 113.162 106.827 112.641 107.647 112.438C108.466 112.234 109.333 112.365 110.056 112.8Z" fill="#24285B"/>
<path d="M102.856 118.555L109.145 122.366L106.325 127.037C105.887 127.762 105.18 128.283 104.358 128.486C103.537 128.689 102.669 128.556 101.945 128.117L101.106 127.609C100.382 127.17 99.8621 126.462 99.6599 125.639C99.4576 124.816 99.59 123.946 100.028 123.221L102.848 118.55L102.856 118.555Z" fill="url(#paint5_linear_45_718)"/>
<path d="M87.8129 113.43H67.7964V119.64H87.8129V113.43Z" fill="white"/>
<defs>
<linearGradient id="paint0_linear_45_718" x1="92.1984" y1="49.5279" x2="105.217" y2="54.288" gradientUnits="userSpaceOnUse">
<stop stop-color="#05C2C5"/>
<stop offset="1" stop-color="#8254FB"/>
</linearGradient>
<linearGradient id="paint1_linear_45_718" x1="105.958" y1="55.9196" x2="101.175" y2="68.9507" gradientUnits="userSpaceOnUse">
<stop stop-color="#05C2C5"/>
<stop offset="1" stop-color="#8254FB"/>
</linearGradient>
<linearGradient id="paint2_linear_45_718" x1="113.837" y1="87.3185" x2="151.292" y2="112.107" gradientUnits="userSpaceOnUse">
<stop stop-color="#05C2C5"/>
<stop offset="1" stop-color="#8254FB"/>
</linearGradient>
<linearGradient id="paint3_linear_45_718" x1="110.235" y1="83.4108" x2="115.937" y2="102.298" gradientUnits="userSpaceOnUse">
<stop stop-color="#05C2C5"/>
<stop offset="1" stop-color="#8254FB"/>
</linearGradient>
<linearGradient id="paint4_linear_45_718" x1="111.326" y1="118.547" x2="114.875" y2="129.194" gradientUnits="userSpaceOnUse">
<stop stop-color="#05C2C5"/>
<stop offset="1" stop-color="#8254FB"/>
</linearGradient>
<linearGradient id="paint5_linear_45_718" x1="102.848" y1="118.55" x2="106.397" y2="129.197" gradientUnits="userSpaceOnUse">
<stop stop-color="#05C2C5"/>
<stop offset="1" stop-color="#8254FB"/>
</linearGradient>
</defs>
</svg>
