<svg width="196" height="148" viewBox="0 0 196 148" fill="none" xmlns="http://www.w3.org/2000/svg">
<path opacity="0.45" d="M98.49 136.401C126.586 136.401 149.362 133.972 149.362 130.976C149.362 127.981 126.586 125.552 98.49 125.552C70.3943 125.552 47.6182 127.981 47.6182 130.976C47.6182 133.972 70.3943 136.401 98.49 136.401Z" fill="#E6E6E6"/>
<path d="M162.749 53.8652C167.365 53.8652 171.108 50.1225 171.108 45.5058C171.108 40.889 167.365 37.1464 162.749 37.1464C158.132 37.1464 154.389 40.889 154.389 45.5058C154.389 50.1225 158.132 53.8652 162.749 53.8652Z" fill="#FFD200"/>
<path opacity="0.15" d="M162.749 61.4406C171.549 61.4406 178.683 54.3063 178.683 45.5058C178.683 36.7052 171.549 29.571 162.749 29.571C153.948 29.571 146.814 36.7052 146.814 45.5058C146.814 54.3063 153.948 61.4406 162.749 61.4406Z" fill="#FFD200"/>
<path opacity="0.37" d="M70.56 64.6599C70.56 63.3434 70.0371 62.0809 69.1062 61.15C68.1753 60.2191 66.9128 59.6962 65.5963 59.6962C65.3286 59.6965 65.0614 59.7195 64.7976 59.7648C64.2269 58.7014 63.3789 57.8123 62.3437 57.192C61.3084 56.5717 60.1245 56.2433 58.9176 56.2417H58.6726C58.8339 55.6141 58.9162 54.9689 58.9176 54.3209C58.9439 53.2615 58.758 52.2076 58.3708 51.2212C57.9836 50.2348 57.4029 49.3359 56.663 48.5773C55.923 47.8188 55.0388 47.216 54.0623 46.8044C53.0858 46.3928 52.0368 46.1807 50.9772 46.1807C49.9175 46.1807 48.8685 46.3928 47.892 46.8044C46.9156 47.216 46.0313 47.8188 45.2914 48.5773C44.5514 49.3359 43.9708 50.2348 43.5835 51.2212C43.1963 52.2076 43.0104 53.2615 43.0367 54.3209C43.0381 54.9689 43.1204 55.6141 43.2817 56.2417H43.0367C42.1428 56.2175 41.2531 56.3727 40.4202 56.698C39.5873 57.0234 38.828 57.5124 38.1871 58.1361C37.5463 58.7598 37.037 59.5056 36.6892 60.3294C36.3414 61.1532 36.1622 62.0384 36.1622 62.9326C36.1622 63.8269 36.3414 64.712 36.6892 65.5359C37.037 66.3597 37.5463 67.1055 38.1871 67.7292C38.828 68.3529 39.5873 68.8419 40.4202 69.1672C41.2531 69.4926 42.1428 69.6478 43.0367 69.6236H66.2578V69.5746C67.4486 69.4155 68.5411 68.8296 69.3324 67.9256C70.1237 67.0217 70.5599 65.8612 70.56 64.6599Z" fill="#E6E6E6"/>
<path d="M96.677 118.403C120.662 118.403 140.106 98.9594 140.106 74.9744C140.106 50.9893 120.662 31.5457 96.677 31.5457C72.692 31.5457 53.2483 50.9893 53.2483 74.9744C53.2483 98.9594 72.692 118.403 96.677 118.403Z" fill="#EFEFEF"/>
<path d="M64.582 46.5445C64.582 46.5445 64.9642 52.8116 69.2615 50.9545C73.5588 49.0974 79.3555 47.0345 78.7283 53.9288C78.1011 60.8231 81.5458 61.7688 86.4017 60.0391C91.2576 58.3094 88.9056 57.8439 89.2192 51.5817C89.5328 45.3195 81.3792 45.0059 82.6434 40.6204C83.9076 36.2349 93.6831 41.4632 90.2776 32.0356C90.2776 32.0111 73.1423 33.4272 64.582 46.5445Z" fill="#CECECE"/>
<path d="M100.734 62.8665C99.8226 62.868 98.922 63.0652 98.0931 63.4447C96.3781 64.263 94.3103 66.2377 95.4863 70.9515C97.363 78.4926 100.494 72.887 104.566 73.8082C108.638 74.7294 117.879 75.6751 113.337 83.9708C108.795 92.2665 113.964 93.9962 118.35 91.9578C122.735 89.9194 119.756 81.7805 124.298 85.382C128.841 88.9835 123.622 100.337 134.686 95.9905C134.686 95.9905 147.426 76.709 134.686 53.9534C134.686 53.9534 128.914 42.9088 124.372 46.8239C119.83 50.739 126.082 50.9595 126.709 55.4528C127.336 59.9461 124.685 65.4341 121.064 60.3871C117.443 55.3401 118.663 55.786 112.867 55.1588C108.241 54.6688 105.027 55.2127 104.934 59.1425C104.913 60.1259 104.512 61.0631 103.815 61.7568C103.118 62.4505 102.178 62.8465 101.195 62.8616L100.734 62.8665Z" fill="#CECECE"/>
<path d="M99.5876 38.4008C99.5876 38.4008 95.0796 37.1513 95.1384 42.6295C95.1972 48.1077 98.1764 47.7941 101.464 46.3878C104.752 44.9815 101.954 49.5189 108.202 48.2694C114.449 47.0199 114.934 45.545 113.523 43.3694C112.112 41.1938 109.76 32.9226 99.5876 38.4008Z" fill="#CECECE"/>
<path d="M53.2483 74.9744C53.2483 74.9744 58.5452 66.3111 64.3321 72.1666C70.119 78.0221 58.7314 77.0667 64.582 82.7213C70.4326 88.3759 74.48 75.2586 77.7875 80.2321C81.095 85.2056 87.5287 88.6013 79.968 92.9721C72.4073 97.3429 76.93 103.443 80.4139 102.155C83.8978 100.866 90.0816 109.681 80.4139 115.135C80.4139 115.159 52.038 104.806 53.2483 74.9744Z" fill="#CECECE"/>
<path d="M98.6517 84.9116C98.6517 84.9116 92.7031 84.9115 92.6835 90.5514C92.6639 96.1913 103.797 90.8552 101.21 96.9655C98.6223 103.076 104.703 104.722 108.07 102.179C111.436 99.636 105.62 91.9724 106.188 86.5628C106.756 81.1532 99.3132 82.4077 98.6517 84.9116Z" fill="#CECECE"/>
<path d="M96.677 118.403C96.677 118.403 92.8354 114.351 101.21 113.415C109.584 112.479 109.765 108.089 112.48 106.207C115.194 104.325 120.981 110.965 120.981 110.965C120.981 110.965 110.25 120.574 96.677 118.403Z" fill="#CECECE"/>
<path opacity="0.08" d="M69.2566 95.912H75.6266V112.935C75.6266 112.935 70.7266 110.024 69.2566 108.632C67.7866 107.241 69.2566 95.912 69.2566 95.912Z" fill="black"/>
<path opacity="0.08" d="M111.705 62.0237C114.62 62.0237 116.983 61.2931 116.983 60.392C116.983 59.4908 114.62 58.7603 111.705 58.7603C108.791 58.7603 106.428 59.4908 106.428 60.392C106.428 61.2931 108.791 62.0237 111.705 62.0237Z" fill="black"/>
<path d="M122.5 39.4885C122.492 37.8285 122.102 36.1926 121.358 34.7084C120.614 33.2242 119.538 31.9318 118.213 30.932C116.887 29.9322 115.349 29.252 113.718 28.9443C112.086 28.6367 110.406 28.71 108.808 29.1585C107.209 29.607 105.736 30.4186 104.503 31.53C103.27 32.6415 102.31 34.0227 101.698 35.566C101.087 37.1093 100.84 38.773 100.977 40.4274C101.114 42.0819 101.631 43.6823 102.488 45.1039L111.72 60.2106L120.893 45.1774C121.951 43.4692 122.508 41.498 122.5 39.4885ZM111.72 45.2166C110.676 45.2166 109.656 44.9071 108.788 44.3273C107.92 43.7474 107.244 42.9232 106.844 41.9589C106.445 40.9946 106.34 39.9335 106.544 38.9098C106.748 37.8861 107.25 36.9458 107.988 36.2077C108.726 35.4697 109.667 34.9671 110.69 34.7634C111.714 34.5598 112.775 34.6643 113.74 35.0638C114.704 35.4632 115.528 36.1396 116.108 37.0074C116.688 37.8753 116.997 38.8956 116.997 39.9393C116.997 41.339 116.441 42.6813 115.452 43.671C114.462 44.6606 113.12 45.2166 111.72 45.2166Z" fill="url(#paint0_linear_47_827)"/>
<path opacity="0.08" d="M75.607 45.7998C78.1211 45.7998 80.1591 45.1987 80.1591 44.4572C80.1591 43.7157 78.1211 43.1146 75.607 43.1146C73.093 43.1146 71.0549 43.7157 71.0549 44.4572C71.0549 45.1987 73.093 45.7998 75.607 45.7998Z" fill="black"/>
<path d="M83.643 28.9732C83.6426 27.7328 83.3552 26.5094 82.8031 25.3987C82.251 24.288 81.4493 23.3202 80.4608 22.571C79.4722 21.8218 78.3237 21.3116 77.1051 21.0804C75.8865 20.8492 74.6309 20.9032 73.4367 21.2381C72.2424 21.5731 71.1419 22.18 70.2213 23.0113C69.3008 23.8426 68.5851 24.8756 68.1304 26.0296C67.6757 27.1836 67.4943 28.4272 67.6004 29.663C67.7066 30.8988 68.0973 32.0933 68.7421 33.1529L75.6021 44.4229L82.4376 33.1921C83.2249 31.9257 83.6424 30.4644 83.643 28.9732ZM75.607 33.2362C74.8317 33.2362 74.0738 33.0063 73.4292 32.5756C72.7845 32.1448 72.2821 31.5326 71.9854 30.8163C71.6887 30.1 71.6111 29.3118 71.7623 28.5514C71.9136 27.791 72.2869 27.0926 72.8351 26.5443C73.3833 25.9961 74.0818 25.6228 74.8422 25.4715C75.6026 25.3203 76.3908 25.3979 77.1071 25.6946C77.8234 25.9913 78.4356 26.4937 78.8663 27.1384C79.2971 27.783 79.527 28.5409 79.527 29.3162C79.527 30.3558 79.114 31.3529 78.3788 32.088C77.6437 32.8232 76.6466 33.2362 75.607 33.2362Z" fill="url(#paint1_linear_47_827)"/>
<path opacity="0.08" d="M99.8424 90.674C101.672 90.674 103.155 90.2681 103.155 89.7675C103.155 89.2668 101.672 88.861 99.8424 88.861C98.013 88.861 96.53 89.2668 96.53 89.7675C96.53 90.2681 98.013 90.674 99.8424 90.674Z" fill="black"/>
<path opacity="0.08" d="M128.983 85.9062C128.983 85.9062 121.143 87.5429 123.358 95.2163C123.358 95.2163 115.939 99.5968 118.458 105.281C118.458 105.281 119.511 108.672 124.734 108.108C124.734 108.108 126.944 106.148 127.322 105.737C127.699 105.325 128.983 85.9062 128.983 85.9062Z" fill="black"/>
<path d="M105.659 78.6053C105.659 77.7069 105.452 76.8207 105.052 76.016C104.653 75.2113 104.073 74.51 103.357 73.9672C102.641 73.4244 101.809 73.0548 100.926 72.8874C100.044 72.72 99.1343 72.7593 98.2695 73.0023C97.4046 73.2452 96.6077 73.6852 95.9414 74.2877C95.2751 74.8903 94.7573 75.639 94.4289 76.4751C94.1004 77.3113 93.9701 78.2122 94.0481 79.1071C94.1262 80.0021 94.4105 80.8668 94.8787 81.6335L99.8473 89.7675L104.787 81.6727C105.359 80.752 105.661 79.6892 105.659 78.6053ZM99.8424 81.7021C99.2803 81.7021 98.7309 81.5354 98.2635 81.2231C97.7961 80.9108 97.4319 80.467 97.2168 79.9477C97.0017 79.4284 96.9454 78.8569 97.055 78.3056C97.1647 77.7544 97.4354 77.248 97.8328 76.8505C98.2303 76.453 98.7367 76.1824 99.288 76.0727C99.8393 75.963 100.411 76.0193 100.93 76.2344C101.449 76.4495 101.893 76.8138 102.205 77.2812C102.518 77.7485 102.684 78.298 102.684 78.8601C102.684 79.6138 102.385 80.3367 101.852 80.8697C101.319 81.4027 100.596 81.7021 99.8424 81.7021Z" fill="url(#paint2_linear_47_827)"/>
<path d="M150.709 101.243C150.71 100.653 150.594 100.068 150.369 99.523C150.143 98.9776 149.812 98.482 149.395 98.0646C148.977 97.6472 148.482 97.3163 147.936 97.0907C147.391 96.8651 146.806 96.7493 146.216 96.75C145.975 96.7513 145.734 96.7726 145.496 96.8137C144.976 95.8461 144.204 95.038 143.26 94.4761C142.317 93.9141 141.238 93.6195 140.14 93.6238H139.919C140.063 93.0533 140.137 92.4676 140.14 91.8794C140.091 90.0048 139.312 88.2234 137.969 86.9148C136.626 85.6062 134.824 84.8739 132.949 84.8739C131.074 84.8739 129.273 85.6062 127.93 86.9148C126.587 88.2234 125.807 90.0048 125.758 91.8794C125.761 92.4676 125.835 93.0533 125.979 93.6238H125.758C124.152 93.6238 122.612 94.2619 121.476 95.3977C120.34 96.5335 119.702 98.0739 119.702 99.6802C119.702 101.286 120.34 102.827 121.476 103.963C122.612 105.098 124.152 105.737 125.758 105.737H146.804V105.712C147.886 105.568 148.88 105.035 149.598 104.213C150.317 103.391 150.712 102.335 150.709 101.243Z" fill="#F7F7F7"/>
<path d="M69.2566 91.5118H29.7675V114.116H69.2566V91.5118Z" fill="#24285B"/>
<path d="M45.4132 99.8713C45.412 99.14 45.2419 98.4188 44.9161 97.7641C44.5903 97.1094 44.1177 96.5387 43.5352 96.0967C42.9526 95.6546 42.2758 95.3531 41.5575 95.2157C40.8392 95.0782 40.0989 95.1085 39.3943 95.3043C38.6897 95.5 38.0398 95.8558 37.4953 96.3441C36.9508 96.8323 36.5265 97.4396 36.2554 98.1188C35.9842 98.798 35.8737 99.5307 35.9323 100.26C35.9909 100.989 36.217 101.694 36.5932 102.321L40.67 108.98L44.7027 102.37C45.1685 101.62 45.4146 100.754 45.4132 99.8713ZM40.67 102.39C40.2106 102.39 39.7616 102.254 39.3796 101.998C38.9977 101.743 38.7 101.38 38.5242 100.956C38.3484 100.532 38.3024 100.065 38.392 99.6142C38.4816 99.1636 38.7028 98.7498 39.0277 98.425C39.3525 98.1001 39.7663 97.8789 40.2169 97.7893C40.6674 97.6997 41.1344 97.7457 41.5588 97.9215C41.9832 98.0973 42.346 98.395 42.6012 98.7769C42.8564 99.1589 42.9926 99.6079 42.9926 100.067C42.9926 100.683 42.7479 101.274 42.3123 101.71C41.8767 102.145 41.286 102.39 40.67 102.39Z" fill="url(#paint3_linear_47_827)"/>
<path d="M64.0038 97.7496H49.6517V101.003H64.0038V97.7496Z" fill="white"/>
<path opacity="0.19" d="M64.0038 103.654H49.6517V106.908H64.0038V103.654Z" fill="white"/>
<defs>
<linearGradient id="paint0_linear_47_827" x1="100.94" y1="28.7576" x2="130.276" y2="48.8665" gradientUnits="userSpaceOnUse">
<stop stop-color="#05C2C5"/>
<stop offset="1" stop-color="#8254FB"/>
</linearGradient>
<linearGradient id="paint1_linear_47_827" x1="67.571" y1="20.9395" x2="89.4614" y2="35.9213" gradientUnits="userSpaceOnUse">
<stop stop-color="#05C2C5"/>
<stop offset="1" stop-color="#8254FB"/>
</linearGradient>
<linearGradient id="paint2_linear_47_827" x1="94.0261" y1="72.7855" x2="109.861" y2="83.6325" gradientUnits="userSpaceOnUse">
<stop stop-color="#05C2C5"/>
<stop offset="1" stop-color="#8254FB"/>
</linearGradient>
<linearGradient id="paint3_linear_47_827" x1="35.917" y1="95.131" x2="48.8356" y2="103.989" gradientUnits="userSpaceOnUse">
<stop stop-color="#05C2C5"/>
<stop offset="1" stop-color="#8254FB"/>
</linearGradient>
</defs>
</svg>
