<svg width="196" height="148" viewBox="0 0 196 148" fill="none" xmlns="http://www.w3.org/2000/svg">
<path opacity="0.45" d="M99.4651 130.878C139.698 130.878 172.313 125.254 172.313 118.315C172.313 111.376 139.698 105.751 99.4651 105.751C59.2321 105.751 26.6168 111.376 26.6168 118.315C26.6168 125.254 59.2321 130.878 99.4651 130.878Z" fill="#E6E6E6"/>
<path d="M109.079 65.8359C108.824 59.8775 115.738 56.374 120.442 60.0441C125.308 63.8416 130.026 71.1622 129.816 85.2644C129.38 114.057 152.645 104.766 152.645 104.766L153.007 110.019C153.007 110.019 123.779 118.31 116.061 92.4233C115.214 89.5666 114.204 86.7589 113.121 83.9708C111.49 79.6392 109.373 72.8331 109.079 65.8359Z" fill="#F4A28C"/>
<path d="M86.779 65.8359C87.0338 59.8775 80.1199 56.374 75.4159 60.0441C70.5453 63.8416 65.8315 71.1622 66.0422 85.2644C66.4783 114.057 43.2082 104.766 43.2082 104.766L42.8456 110.019C42.8456 110.019 72.0741 118.31 79.7916 92.4233C80.6442 89.5666 81.6536 86.7589 82.7316 83.9708C84.3633 79.6392 86.4801 72.8331 86.779 65.8359Z" fill="#F4A28C"/>
<path opacity="0.08" d="M72.4906 71.2308C72.0937 80.0646 74.0681 88.8436 78.2089 96.6569L80.3159 90.7426L72.4906 71.2308Z" fill="black"/>
<path d="M99.2936 41.8798C99.2936 41.8798 100.651 45.3098 100.764 47.7892C100.774 48.0316 100.737 48.2736 100.653 48.5015C100.57 48.7294 100.443 48.9386 100.278 49.117C100.114 49.2955 99.9158 49.4398 99.6956 49.5415C99.4753 49.6433 99.2371 49.7005 98.9947 49.71C97.7305 49.7443 96.0155 49.4307 95.0747 47.6912L93.1 44.9521C92.7627 44.3603 92.6178 43.6783 92.6854 43.0005C92.753 42.3227 93.0298 41.6827 93.4773 41.1693C95.0208 39.1358 98.5733 39.763 99.2936 41.8798Z" fill="#F4A28C"/>
<path d="M93.8546 45.5891L92.2474 57.501L98.8722 57.9175L97.4218 49.3082L93.8546 45.5891Z" fill="#F4A28C"/>
<path d="M100.038 44.0701L101.43 45.1285C101.505 45.1897 101.565 45.2686 101.603 45.3581C101.64 45.4477 101.656 45.5451 101.647 45.642C101.638 45.7388 101.606 45.8319 101.553 45.9133C101.499 45.9946 101.427 46.0617 101.342 46.1085L100.073 46.7651L100.038 44.0701Z" fill="#F4A28C"/>
<path opacity="0.31" d="M97.461 49.5483C96.6706 49.3567 95.9473 48.9536 95.3687 48.3821C95.3687 48.3821 94.7758 50.9448 97.8775 52.0179L97.461 49.5483Z" fill="#CE8172"/>
<path d="M96.04 45.5793C96.04 45.5793 95.6039 44.2318 94.619 44.6434C93.6341 45.055 94.2515 46.9954 95.6823 46.7651L96.04 45.5793Z" fill="#F4A28C"/>
<path d="M99.9894 40.1599L100.969 43.0999L96.1037 44.6287C96.1037 44.6287 95.6137 47.8088 97.2748 48.4948C96.8898 48.4497 96.5179 48.3276 96.1811 48.1356C95.8444 47.9437 95.5498 47.6859 95.3148 47.3776C95.1272 47.1455 94.8568 46.9954 94.5606 46.9589C94.2644 46.9223 93.9657 47.0022 93.7272 47.1816L93.6635 47.2306C93.6635 47.2306 91.5712 45.0158 91.2135 42.164C90.8558 39.3122 93.982 39.0721 93.982 39.0721C93.982 39.0721 98.343 36.4065 99.9894 40.1599Z" fill="#24285B"/>
<path d="M72.4906 71.2308C71.8872 69.7273 71.643 68.1037 71.7776 66.4892C71.9123 64.8747 72.4219 63.314 73.2661 61.9312C74.1102 60.5484 75.2655 59.3818 76.64 58.5242C78.0144 57.6666 79.5701 57.1418 81.1832 56.9914C85.2012 56.619 89.3319 56.3348 92.4042 56.3446C100.886 56.3789 114.4 56.0065 119.462 59.4022C121.148 60.5341 122.25 63.283 122.97 66.4533C124.65 74.0778 123.781 82.0429 120.496 89.1256L110.299 111.445H86.1861L80.3061 90.7426L72.4906 71.2308Z" fill="url(#paint0_linear_45_719)"/>
<path d="M93.982 39.0721C93.982 39.0721 93.9379 36.3428 89.0281 36.4702C84.1183 36.5976 88.5871 43.5017 84.1869 49.3915C84.1869 49.3915 91.6643 48.2939 92.2964 41.6887L93.982 39.0721Z" fill="#24285B"/>
<path d="M94.3005 38.9006C94.3005 38.9006 93.3646 38.1656 91.9289 38.9545C90.4932 39.7434 89.6798 42.8745 91.7868 44.1338C91.7868 44.1338 90.2531 39.6895 94.3005 38.9006Z" fill="#FFD200"/>
<path d="M84.1869 56.7121C84.1869 56.7121 86.3478 65.5321 96.7113 65.831C108.128 66.1642 109.069 56.7366 109.069 56.7366L104.1 55.9379C98.7561 55.0809 93.3064 55.119 87.9746 56.0506L84.1869 56.7121Z" fill="#F4A28C"/>
<path d="M97.8775 111.445C97.8775 111.445 76.0774 98.0926 70.3003 106.423C64.5232 114.753 101.66 117.717 101.66 117.717L102.998 113.875L97.8775 111.445Z" fill="#24285B"/>
<path d="M103.003 114.478C103.003 114.478 110.936 116.492 109.731 119.922C108.525 123.352 101.827 117.84 101.827 117.84L103.003 114.478Z" fill="#F4A28C"/>
<path d="M98.7595 111.445C98.7595 111.445 120.564 98.0926 126.337 106.423C132.109 114.753 94.9767 117.717 94.9767 117.717L93.6341 113.875L98.7595 111.445Z" fill="#24285B"/>
<path d="M93.639 114.478C93.639 114.478 85.7059 116.492 86.9113 119.922C88.1167 123.352 94.815 117.84 94.815 117.84L93.639 114.478Z" fill="#F4A28C"/>
<path d="M43.2082 104.766C43.2082 104.766 42.14 101.523 40.18 101.523C38.22 101.523 40.18 104.766 40.18 104.766C39.8999 104.306 39.4759 103.951 38.9736 103.756C38.4714 103.562 37.9189 103.538 37.4017 103.688C35.4417 104.139 33.7267 109.853 42.8309 110.019L43.2082 104.766Z" fill="#F4A28C"/>
<path d="M46.7926 104.266L43.1539 103.716L42.0934 110.737L45.7321 111.286L46.7926 104.266Z" fill="#FFD200"/>
<path d="M151.292 105.109C151.292 105.109 152.351 101.866 154.311 101.866C156.271 101.866 154.311 105.109 154.311 105.109C154.591 104.649 155.015 104.294 155.517 104.099C156.019 103.905 156.572 103.881 157.089 104.031C159.049 104.477 160.764 110.196 151.66 110.357L151.292 105.109Z" fill="#F4A28C"/>
<path d="M148.758 111.636L152.396 111.087L151.336 104.066L147.697 104.616L148.758 111.636Z" fill="#FFD200"/>
<path opacity="0.08" d="M121.687 86.1954C114.435 90.3039 106.023 91.883 97.7746 90.6838C97.7746 90.6838 100.401 92.34 103.493 94.055C104.178 94.4348 104.776 94.9546 105.247 95.5806C105.718 96.2065 106.052 96.9247 106.227 97.6882C106.402 98.4518 106.414 99.2436 106.263 100.012C106.112 100.781 105.801 101.509 105.35 102.15L98.7742 111.46L113.332 104.845C113.332 104.845 120.839 88.8855 121.687 86.1954Z" fill="black"/>
<path d="M99.1025 54.0563H91.5418V55.7125H99.1025V54.0563Z" fill="#05C2C5"/>
<path opacity="0.46" d="M99.1025 54.0563H91.5418V55.7125H99.1025V54.0563Z" fill="white"/>
<path opacity="0.45" d="M41.0081 86.5482V77.1304C41.0088 69.647 42.4834 62.237 45.348 55.3235C48.2125 48.41 52.4107 42.1285 57.703 36.8376C62.9952 31.5468 69.2778 27.3501 76.192 24.4874C83.1062 21.6247 90.5166 20.1519 98 20.1532V20.1532C113.11 20.1558 127.6 26.1597 138.284 36.8446C148.968 47.5294 154.971 62.0203 154.972 77.1304V86.5482" stroke="#C9C9C9" stroke-width="3.045" stroke-linecap="round" stroke-linejoin="round" stroke-dasharray="3.05 12.18"/>
<path d="M43.2082 67.2373C46.572 67.2373 49.2989 64.5104 49.2989 61.1466C49.2989 57.7828 46.572 55.0559 43.2082 55.0559C39.8444 55.0559 37.1175 57.7828 37.1175 61.1466C37.1175 64.5104 39.8444 67.2373 43.2082 67.2373Z" fill="#FFD200"/>
<path d="M98.8722 24.426C102.236 24.426 104.963 21.6991 104.963 18.3353C104.963 14.9715 102.236 12.2446 98.8722 12.2446C95.5084 12.2446 92.7815 14.9715 92.7815 18.3353C92.7815 21.6991 95.5084 24.426 98.8722 24.426Z" fill="#FFD200"/>
<path d="M153.007 68.8249C156.371 68.8249 159.098 66.098 159.098 62.7342C159.098 59.3704 156.371 56.6435 153.007 56.6435C149.644 56.6435 146.917 59.3704 146.917 62.7342C146.917 66.098 149.644 68.8249 153.007 68.8249Z" fill="#FFD200"/>
<path d="M62.0046 38.4351C64.4672 38.4351 66.4636 36.4387 66.4636 33.9761C66.4636 31.5134 64.4672 29.5171 62.0046 29.5171C59.542 29.5171 57.5456 31.5134 57.5456 33.9761C57.5456 36.4387 59.542 38.4351 62.0046 38.4351Z" fill="#24285B"/>
<path d="M135.5 39.0329C137.962 39.0329 139.959 37.0365 139.959 34.5739C139.959 32.1112 137.962 30.1149 135.5 30.1149C133.037 30.1149 131.041 32.1112 131.041 34.5739C131.041 37.0365 133.037 39.0329 135.5 39.0329Z" fill="#24285B"/>
<defs>
<linearGradient id="paint0_linear_45_719" x1="71.7416" y1="56.3443" x2="126.754" y2="108.325" gradientUnits="userSpaceOnUse">
<stop stop-color="#05C2C5"/>
<stop offset="1" stop-color="#8254FB"/>
</linearGradient>
</defs>
</svg>
